<?xml version="1.0" standalone="no"?>
<!DOCTYPE svg PUBLIC "-//W3C//DTD SVG 20010904//EN"
 "http://www.w3.org/TR/2001/REC-SVG-20010904/DTD/svg10.dtd">
<svg version="1.0" xmlns="http://www.w3.org/2000/svg"
 width="1600.000000pt" height="712.000000pt" viewBox="0 0 1600.000000 712.000000"
 preserveAspectRatio="xMidYMid meet">
<metadata>
Created by potrace 1.13, written by Peter Selinger 2001-2015
</metadata>
<g transform="translate(0.000000,712.000000) scale(0.100000,-0.100000)"
fill="#000000" stroke="none">
<path d="M0 3560 l0 -3560 8000 0 8000 0 0 3560 0 3560 -8000 0 -8000 0 0
-3560z m12580 3412 c0 -9 7 -11 19 -7 11 3 22 1 26 -5 3 -6 11 -8 16 -5 5 4 9
2 9 -2 0 -5 16 -15 35 -22 25 -9 35 -18 35 -34 0 -13 3 -17 8 -11 16 25 192 8
192 -18 0 -12 -28 -10 -52 3 -19 10 -20 9 -15 -10 3 -14 0 -21 -9 -21 -8 0
-14 4 -14 8 0 4 -18 8 -40 9 -23 1 -38 -2 -35 -8 4 -5 4 -9 2 -9 -15 0 -79 33
-117 60 -67 48 -137 133 -80 98 11 -7 20 -19 20 -26z m-6445 -86 c88 -18 188
-46 280 -81 33 -13 88 -32 122 -44 34 -12 83 -33 110 -47 26 -15 73 -39 103
-55 85 -45 101 -61 86 -81 -13 -18 -122 -75 -198 -103 -27 -10 -48 -22 -48
-26 0 -13 8 -11 43 7 58 30 67 34 81 34 16 0 134 59 141 70 6 10 170 4 250
-10 33 -5 91 -13 128 -16 38 -3 66 -8 64 -11 -3 -2 -79 -6 -169 -7 -101 -2
-171 -7 -185 -14 -12 -7 -36 -12 -53 -12 -21 0 -30 -4 -27 -12 2 -7 14 -12 25
-10 12 2 22 -2 22 -7 0 -6 15 -11 34 -11 18 0 39 -6 45 -14 6 -7 37 -16 70
-19 60 -5 191 -44 191 -57 0 -4 -35 -4 -77 -1 -123 10 -495 5 -528 -6 l-30
-10 30 -13 c17 -7 39 -16 50 -20 11 -4 38 -15 60 -23 22 -9 74 -28 115 -43 41
-15 79 -31 85 -36 5 -4 17 -8 27 -8 10 0 35 -10 56 -23 20 -12 49 -28 65 -35
47 -20 29 -30 -30 -15 -32 7 -85 18 -118 23 -33 5 -87 18 -120 28 -33 11 -100
25 -150 31 -49 7 -112 16 -139 22 -53 10 -73 5 -35 -10 14 -5 40 -23 58 -40
18 -17 37 -31 42 -31 4 0 19 -10 33 -22 39 -36 55 -48 64 -48 5 0 15 -7 22
-15 7 -8 20 -15 29 -15 9 0 27 -10 41 -21 l25 -21 -25 5 c-57 11 -366 130
-405 156 -23 16 -65 30 -65 22 0 -5 16 -32 35 -60 19 -28 35 -53 35 -57 0 -3
16 -28 36 -55 36 -50 32 -61 -16 -36 -89 48 -184 100 -239 131 -35 20 -66 35
-68 33 -3 -4 42 -144 62 -189 4 -11 3 -18 -4 -18 -6 0 -11 3 -11 8 0 20 -97
106 -176 155 l-89 56 -17 -32 c-9 -18 -17 -37 -18 -43 0 -6 -7 -29 -16 -49
-12 -29 -18 -35 -25 -24 -5 8 -9 25 -9 38 0 33 -21 101 -32 101 -4 0 -8 -4 -8
-10 0 -14 -83 -129 -93 -130 -5 0 -6 43 -4 95 3 52 1 95 -3 95 -5 0 -18 -12
-30 -27 -12 -16 -37 -45 -56 -65 -34 -37 -34 -39 -23 -78 7 -22 9 -43 6 -47
-4 -3 -53 42 -109 100 -57 58 -125 124 -153 146 l-50 39 -50 -36 c-27 -20 -77
-59 -109 -86 -59 -50 -59 -50 -52 -21 4 17 11 55 17 85 5 30 13 76 17 102 5
27 7 50 5 52 -3 2 -32 -15 -66 -39 -34 -23 -81 -53 -104 -66 -22 -13 -64 -39
-92 -56 -28 -18 -51 -30 -51 -28 0 5 78 166 101 207 8 16 3 17 -68 12 -43 -3
-96 -9 -118 -14 -22 -5 -62 -12 -90 -15 -80 -9 -149 -22 -168 -30 -17 -7 -18
-6 -7 11 7 11 49 37 93 59 45 21 98 52 118 67 20 15 44 28 52 28 9 0 19 5 22
10 4 6 -41 10 -127 11 -73 1 -146 5 -163 9 -16 4 -27 8 -23 9 106 16 206 35
256 47 62 15 62 15 95 -11 42 -31 62 -33 23 -2 -32 26 -31 52 1 64 10 4 41 22
70 40 29 18 55 33 58 33 6 0 138 60 185 84 14 7 45 18 70 25 25 7 65 19 90 26
70 22 182 46 188 40 3 -3 10 -1 16 5 7 5 61 12 121 15 61 4 148 10 195 14 90
6 242 -7 375 -33z m-3941 -235 c3 -4 18 -11 34 -14 16 -3 46 -23 67 -44 21
-21 45 -37 54 -35 12 2 13 1 3 -6 -9 -6 -6 -20 13 -58 30 -58 30 -62 8 -86 -9
-10 -11 -18 -5 -18 6 0 14 5 17 10 12 19 22 10 34 -31 14 -46 1 -135 -26 -179
-60 -96 -158 -190 -200 -190 -9 0 -14 -3 -10 -6 9 -10 51 3 74 23 12 10 30 25
40 34 10 8 34 33 54 55 l36 41 100 -16 100 -16 -33 -89 c-36 -94 -52 -166 -37
-166 5 0 15 21 22 48 8 26 21 63 29 82 8 19 18 44 22 55 22 58 44 105 50 105
3 0 11 15 18 33 15 40 96 178 107 180 5 1 9 -7 10 -18 1 -11 8 -58 15 -105 14
-94 17 -381 4 -402 -5 -7 -7 -21 -5 -31 2 -14 -2 -17 -16 -14 -10 3 -45 9 -78
12 -43 5 -56 3 -45 -4 8 -6 27 -11 42 -11 14 0 54 -7 87 -16 59 -15 87 -12 76
7 -4 5 -15 9 -26 9 -18 0 -25 12 -19 35 3 13 22 192 24 230 2 37 14 36 111
-10 39 -18 102 -47 140 -65 39 -17 78 -39 89 -48 36 -32 116 -171 140 -243 30
-90 59 -419 37 -419 -7 0 -8 -7 0 -23 8 -17 7 -69 -1 -178 -19 -260 -29 -325
-117 -731 -3 -16 -12 -28 -20 -28 -11 0 -11 -4 -2 -22 16 -29 37 -137 32 -158
-2 -9 5 -44 16 -78 12 -34 21 -76 21 -94 0 -18 6 -80 15 -138 8 -58 19 -163
26 -235 6 -71 15 -173 21 -225 5 -52 13 -133 18 -180 4 -47 12 -109 16 -137
l7 -53 -94 1 c-52 0 -114 6 -139 12 -50 13 -54 29 -19 76 11 15 31 60 46 101
24 66 27 93 31 230 4 147 2 164 -28 300 -18 80 -40 158 -48 174 -8 17 -22 57
-32 90 -17 57 -44 119 -119 276 -61 127 -82 157 -196 275 -43 44 -101 104
-129 133 -28 29 -64 60 -80 69 -16 8 -50 29 -75 47 -66 44 -107 66 -125 66 -9
0 -16 4 -16 9 0 4 -20 14 -45 21 -57 16 -120 10 -325 -30 -70 -13 -122 -5
-150 25 -29 31 -24 81 11 107 26 19 28 19 97 3 43 -11 85 -15 106 -11 52 10
53 24 1 19 -51 -6 -115 4 -115 17 0 6 6 10 13 10 18 0 40 51 27 64 -19 19 -10
26 30 21 22 -3 59 -7 83 -11 27 -3 38 -2 32 5 -5 5 -35 11 -65 14 -30 2 -73 9
-95 16 -22 6 -72 11 -111 11 -49 0 -76 5 -90 16 -18 14 -14 15 49 10 37 -3 65
-2 63 3 -3 4 -33 11 -67 14 -34 3 -66 10 -72 16 -17 17 8 109 58 211 7 14 27
61 45 105 17 44 36 88 41 97 5 10 9 23 9 29 0 6 7 26 16 44 19 41 16 64 -11
79 -30 17 -83 74 -102 109 -9 18 -18 65 -21 105 -3 41 -8 68 -12 61 -6 -9 -21
-9 -72 0 -132 25 -205 84 -242 197 -24 75 -14 218 22 294 24 51 82 131 82 112
0 -4 -5 -13 -12 -20 -6 -6 -9 -15 -5 -18 4 -4 15 4 26 17 15 18 20 20 21 8 0
-9 -3 -19 -7 -23 -12 -12 -12 -197 0 -236 21 -67 85 -139 146 -166 45 -19 70
-18 110 7 52 32 278 52 321 29 32 -17 65 -2 89 40 11 21 21 45 21 54 0 9 5 16
10 16 14 0 13 26 -7 103 -11 42 -23 67 -31 67 -10 0 -13 8 -10 25 3 14 1 25
-3 25 -5 0 -9 6 -9 14 0 8 -11 24 -25 37 -13 13 -25 30 -25 37 0 14 26 17 34
3z m-1989 -41 c67 -11 109 -44 124 -98 8 -26 7 -32 -6 -32 -12 0 -14 -12 -11
-65 l3 -65 -31 0 c-16 0 -36 6 -43 13 -10 10 -11 9 -6 -5 4 -11 23 -19 51 -24
78 -11 82 -45 7 -60 -57 -11 -25 -24 57 -24 71 0 82 -3 112 -27 53 -44 67 -66
68 -101 0 -37 -13 -68 -41 -94 -17 -17 -19 -16 -39 10 l-22 27 46 13 c49 14
65 37 19 26 -38 -9 -74 -28 -100 -53 -28 -27 -67 -27 -79 -1 -5 10 -30 41 -55
67 -25 26 -59 72 -75 100 -36 65 -52 71 -18 7 27 -50 25 -67 -4 -41 -10 10
-24 17 -30 17 -14 0 -45 45 -49 74 -8 50 -4 159 6 169 8 8 11 1 12 -23 0 -19
4 -44 9 -55 14 -32 11 60 -3 130 -7 33 -12 67 -11 75 0 8 2 23 2 33 2 20 21
21 107 7z m8065 -60 c25 -5 74 -14 110 -21 36 -6 70 -15 75 -19 6 -4 33 -11
60 -14 51 -8 143 -31 180 -45 46 -19 93 -31 118 -31 14 0 28 -4 32 -10 3 -5
33 -12 66 -16 32 -4 62 -11 65 -15 3 -5 25 -9 50 -9 37 0 46 -4 54 -22 5 -13
9 -17 9 -10 1 9 12 11 39 7 20 -3 66 -11 102 -16 67 -11 121 -21 225 -44 33
-8 89 -19 125 -26 36 -6 88 -17 115 -24 28 -7 75 -18 105 -25 30 -6 69 -16 85
-21 65 -19 145 -40 260 -68 66 -17 134 -34 152 -40 17 -5 34 -7 36 -4 3 2 19
-3 36 -11 16 -9 44 -16 61 -16 45 0 36 -17 -12 -23 -24 -2 -72 -12 -108 -22
-36 -10 -83 -21 -105 -25 -22 -5 -88 -20 -146 -34 -58 -14 -135 -30 -170 -35
-35 -5 -113 -19 -174 -30 -157 -30 -377 -44 -530 -36 -167 9 -360 7 -388 -5
-20 -8 -19 -9 10 -9 17 -1 34 -5 37 -10 3 -5 18 -11 33 -14 16 -3 64 -15 108
-26 44 -11 92 -20 108 -21 15 0 27 -4 27 -9 0 -5 21 -12 46 -16 26 -3 58 -11
73 -17 56 -22 77 -33 93 -46 9 -8 30 -15 45 -16 30 -2 119 -40 125 -54 4 -11
105 -71 111 -66 2 2 10 -2 17 -11 7 -8 21 -15 32 -15 14 0 18 -5 14 -16 -3 -9
-2 -12 5 -9 5 4 25 1 42 -5 45 -18 139 -60 157 -71 36 -21 100 -49 114 -49 8
0 17 -4 21 -9 3 -5 32 -7 65 -5 33 2 60 0 60 -5 0 -8 -50 -42 -119 -80 -21
-11 -23 -11 -18 3 4 9 2 16 -3 16 -6 0 -10 -7 -10 -15 0 -17 -24 -28 -80 -38
-30 -6 -32 -5 -15 5 11 7 24 13 29 13 5 0 13 12 17 28 5 20 4 27 -7 27 -9 0
-12 -5 -8 -12 5 -8 -2 -9 -24 -5 -24 5 -34 2 -41 -11 -7 -10 -14 -13 -18 -7
-5 6 -26 10 -47 10 -44 0 -53 11 -32 40 12 16 16 17 29 6 17 -14 40 -6 34 12
-2 6 -19 16 -38 22 -27 9 -36 19 -43 48 -5 20 -14 37 -18 37 -5 0 -7 -8 -3
-19 4 -14 0 -20 -20 -23 -14 -3 -25 -1 -25 3 0 5 -6 6 -14 3 -8 -3 -17 -1 -21
5 -10 17 -25 13 -25 -7 0 -10 -5 -23 -12 -30 -9 -9 -6 -12 14 -12 14 0 31 -7
38 -15 9 -11 15 -12 20 -5 4 6 15 8 24 4 13 -5 16 -14 13 -33 -5 -23 -1 -29
25 -39 32 -12 30 -32 -3 -32 -10 0 -19 -6 -19 -14 0 -9 7 -12 20 -9 11 3 20
10 20 15 0 5 6 6 13 1 6 -4 30 -11 52 -15 39 -7 39 -7 -7 -4 -26 2 -46 0 -43
-4 3 -4 -12 -11 -33 -15 -47 -10 -261 -14 -267 -5 -2 3 -39 4 -82 1 -91 -6
-223 -7 -343 -2 -86 3 -165 -6 -300 -33 -41 -8 -88 -15 -103 -16 l-28 0 21
-22 c11 -12 20 -33 21 -47 0 -14 7 -42 15 -61 l14 -35 -7 35 c-3 19 -7 45 -7
57 -1 12 -4 25 -8 29 -4 4 -5 11 -2 15 3 5 12 2 21 -6 8 -9 23 -13 32 -10 19
6 59 -30 48 -42 -4 -3 -16 4 -27 17 -19 22 -28 18 -12 -6 10 -15 57 -39 48
-25 -4 6 -3 11 2 11 9 0 132 -124 132 -134 0 -15 -18 -4 -28 17 -11 22 -11 22
-11 1 -1 -24 22 -39 54 -35 11 2 17 0 13 -5 -11 -11 -68 -12 -68 -2 0 5 -8 8
-17 7 -38 -3 -51 2 -56 23 -7 26 2 45 13 27 7 -10 11 -9 24 3 13 14 12 18 -10
39 -16 15 -23 18 -19 8 3 -9 0 -23 -7 -30 -7 -8 -18 -25 -25 -39 -9 -21 -10
-16 -6 33 6 60 -1 74 -17 31 -6 -14 -14 -23 -19 -19 -5 3 -12 1 -16 -5 -3 -5
0 -10 8 -10 10 0 16 -14 19 -37 8 -63 -4 -68 -28 -12 -28 66 -31 45 -5 -37 10
-32 27 -86 36 -119 10 -33 29 -85 42 -115 14 -30 28 -64 32 -75 5 -11 16 -38
26 -60 10 -22 19 -50 21 -62 1 -12 9 -37 18 -55 8 -18 22 -58 32 -88 18 -57
23 -72 47 -130 20 -47 37 -113 37 -139 0 -31 28 -27 116 19 43 22 83 40 90 40
10 0 35 10 154 62 14 5 33 14 42 19 10 5 24 9 32 9 7 0 57 16 110 36 l96 37
44 -39 c24 -22 73 -63 110 -92 36 -29 66 -57 66 -62 0 -5 26 0 58 12 66 24
193 29 257 10 38 -11 152 -108 147 -124 -1 -4 11 -34 27 -67 33 -69 38 -97 50
-284 11 -166 41 -256 105 -320 41 -40 107 -77 137 -77 10 0 20 -4 23 -9 3 -4
27 -16 53 -26 26 -10 71 -39 99 -64 28 -25 82 -74 120 -108 103 -92 114 -103
114 -113 0 -6 9 -10 20 -10 11 0 20 -6 20 -13 0 -7 42 -51 93 -98 134 -125
138 -129 187 -189 24 -30 52 -61 62 -68 22 -16 24 -36 3 -28 -22 8 2 -27 29
-44 21 -13 21 -13 2 9 -11 11 -16 24 -12 28 3 4 19 -9 35 -28 l29 -34 -26 -7
c-15 -4 -67 -39 -115 -78 -55 -44 -97 -70 -112 -70 -16 0 -25 -6 -25 -16 0
-10 -6 -14 -15 -10 -9 3 -15 0 -15 -9 0 -25 -13 -16 -48 31 -30 40 -37 74 -15
74 23 -1 56 -48 50 -72 -2 -7 -2 -10 0 -5 3 4 9 5 14 1 5 -3 12 2 15 11 5 11
-13 35 -59 78 -36 34 -73 78 -81 97 -8 19 -15 28 -15 19 -1 -21 28 -79 40 -79
5 0 9 -6 9 -13 0 -13 -60 -37 -91 -37 -7 0 -43 -11 -79 -24 -36 -12 -87 -29
-115 -35 -68 -17 -88 -41 -93 -112 -4 -51 -1 -60 20 -81 37 -34 60 -53 121
-91 49 -32 57 -43 86 -110 17 -42 31 -77 31 -80 0 -4 -36 -12 -167 -39 -32 -6
-80 -20 -107 -30 l-49 -19 7 83 c7 92 21 221 36 343 6 44 13 107 16 140 8 93
-11 44 -24 -60 -20 -161 -24 -190 -25 -220 -1 -19 -7 -30 -17 -30 -8 0 -14 6
-12 13 1 7 -3 12 -10 11 -7 -1 -22 -1 -33 0 -17 1 -18 3 -5 11 8 5 11 10 6 10
-6 0 -5 5 2 12 18 18 15 25 -14 31 -19 3 -28 -1 -34 -17 -9 -21 -9 -21 -9 2
-1 17 -7 22 -26 22 -14 0 -25 4 -25 8 0 4 -18 8 -41 9 -37 2 -39 0 -27 -15 12
-15 11 -16 -4 -3 -10 7 -16 17 -13 21 2 4 -7 12 -20 18 -18 9 -25 19 -25 41 0
16 -4 33 -10 36 -6 4 -10 -9 -10 -32 -1 -28 -3 -34 -10 -22 -5 9 -14 105 -20
215 -6 109 -13 221 -16 249 -6 55 10 122 35 143 14 12 14 13 -3 10 -19 -3 -23
-8 -45 -58 -7 -14 -9 -17 -7 -7 6 18 -9 24 -19 7 -3 -5 -13 -10 -21 -10 -16 0
-110 -65 -156 -108 -15 -14 -31 -21 -38 -17 -9 6 -9 10 1 16 12 7 12 9 1 9 -8
0 -16 -9 -19 -19 -3 -11 -11 -17 -18 -15 -11 5 -165 -63 -165 -72 0 -11 41 -2
54 12 9 8 16 12 16 8 0 -3 6 -2 13 3 19 15 49 24 42 13 -3 -6 -12 -10 -18 -10
-11 0 -46 -30 -74 -64 -7 -8 -15 -26 -19 -40 -8 -32 -24 -34 -25 -3 0 21 -1
21 -11 -3 -11 -28 7 -287 22 -305 4 -5 11 -32 15 -60 22 -152 82 -357 126
-426 16 -25 29 -50 29 -55 0 -13 -178 -174 -193 -174 -3 0 -41 -24 -85 -54
-100 -68 -107 -63 -106 58 0 55 -1 68 -6 41 l-6 -40 -12 40 c-6 22 -12 45 -12
52 0 7 -6 27 -14 45 -8 18 -19 53 -26 78 -7 25 -16 56 -21 68 -7 18 -6 23 3
19 7 -2 21 0 30 4 21 11 39 -17 40 -61 1 -27 38 -78 38 -52 0 6 -6 13 -12 15
-10 4 -10 7 0 15 13 9 10 42 -13 142 -4 17 -1 14 11 -10 19 -40 33 -216 15
-190 -8 12 -11 8 -11 -17 0 -17 4 -34 9 -37 10 -6 31 60 31 100 0 22 3 26 10
14 5 -8 10 -28 10 -44 0 -24 2 -27 15 -16 10 8 13 21 9 33 -3 11 -8 64 -9 117
-2 54 -8 115 -13 136 -6 22 -14 71 -18 109 -5 39 -9 75 -10 80 -1 6 -2 25 -3
43 0 18 -4 31 -8 29 -5 -3 -9 30 -10 72 -2 42 -5 86 -8 99 -4 14 -1 22 8 22
14 0 57 44 57 58 0 5 15 26 33 48 41 49 70 94 60 94 -5 0 -27 -28 -51 -63 -71
-105 -89 -124 -103 -110 -6 6 -13 24 -15 40 -5 58 -14 106 -19 111 -3 3 -52 6
-108 6 -56 1 -105 5 -109 10 -4 6 -12 6 -20 -1 -7 -6 -60 -11 -118 -12 l-105
-2 -42 -42 c-24 -22 -43 -44 -43 -48 0 -14 206 -77 355 -109 33 -7 65 -14 72
-15 19 -6 3 -43 -20 -49 -12 -3 -33 -15 -47 -27 -14 -11 -19 -18 -13 -14 9 4
11 1 7 -9 -8 -22 -27 -20 -42 4 -7 11 -20 20 -29 20 -15 0 -14 -2 3 -14 24
-18 12 -42 -36 -71 -18 -11 -47 -33 -64 -50 -17 -16 -56 -48 -86 -70 -66 -48
-62 -44 -144 -124 -36 -36 -66 -69 -66 -74 0 -6 -8 -16 -17 -23 -17 -12 -16
-13 5 -14 12 0 22 -4 22 -8 0 -14 -36 -52 -49 -52 -6 0 -11 -4 -11 -9 0 -5
-15 -19 -34 -30 -18 -12 -39 -34 -46 -50 -7 -18 -24 -34 -41 -40 -36 -12 -62
-37 -54 -51 3 -5 1 -10 -4 -10 -6 0 -11 -7 -11 -15 0 -8 -4 -15 -9 -15 -5 0
-11 -9 -14 -20 -3 -11 -9 -20 -14 -19 -4 1 -15 1 -23 0 -13 -1 -13 -2 0 -11
13 -8 12 -10 -3 -10 -10 0 -15 -4 -12 -10 3 -5 2 -10 -4 -10 -5 0 -17 -18 -27
-40 -10 -22 -22 -40 -28 -40 -6 0 -5 -5 2 -12 19 -19 14 -30 -10 -23 l-23 7
23 -17 c12 -9 32 -17 43 -18 32 -2 46 -40 25 -72 -9 -14 -12 -25 -7 -25 6 0 8
-7 5 -15 -4 -8 -1 -15 5 -15 6 0 8 -6 5 -14 -6 -15 12 -55 30 -69 7 -6 6 -7
-4 -5 -8 3 -19 14 -25 26 -5 12 -13 22 -18 22 -5 0 -5 10 -2 21 7 21 5 22 -36
14 -24 -5 -56 -8 -71 -8 -16 0 -28 -3 -28 -7 0 -4 -19 -7 -42 -8 -24 -1 -56
-4 -71 -8 -16 -3 -34 -1 -42 6 -12 10 -15 9 -15 -4 0 -26 -19 -19 -26 10 -4
14 -15 42 -25 62 -15 30 -18 33 -19 15 0 -12 5 -25 10 -28 6 -3 10 -31 10 -61
0 -30 -4 -54 -10 -54 -5 0 -10 -12 -10 -26 0 -17 4 -23 13 -18 9 5 9 4 1 -5
-15 -16 -114 -51 -114 -40 0 18 -18 8 -23 -13 -5 -18 -8 -19 -21 -8 -11 8 -16
9 -16 1 0 -15 -27 -14 -33 2 -3 7 -6 5 -6 -5 -1 -24 -22 -23 -28 2 -3 11 -10
20 -15 20 -6 0 -7 -11 -4 -25 5 -18 2 -25 -8 -25 -8 0 -17 8 -19 18 -4 13 -5
11 -6 -5 -1 -15 -7 -23 -20 -23 -11 0 -18 6 -17 16 0 9 -5 19 -13 22 -10 3
-12 -1 -8 -17 3 -14 0 -21 -9 -21 -8 0 -14 7 -14 15 0 8 -4 15 -10 15 -5 0
-10 -7 -10 -15 0 -8 -4 -15 -9 -15 -14 0 -32 26 -23 34 4 4 -5 5 -19 1 -33 -8
-45 7 -57 70 l-10 50 -1 -42 c0 -23 4 -54 9 -68 9 -23 8 -26 -5 -21 -9 3 -15
0 -15 -9 0 -8 -4 -15 -10 -15 -5 0 -10 4 -10 9 0 21 -72 51 -121 51 l-50 0 1
193 c1 105 -1 199 -5 208 -3 10 -1 20 5 24 8 5 8 11 -1 22 -9 11 -12 57 -11
166 2 84 -3 225 -9 314 -7 90 -10 165 -7 169 3 3 22 2 42 -2 30 -5 38 -12 43
-35 3 -16 10 -29 14 -29 10 0 2 43 -12 72 -13 24 -125 33 -359 31 -166 -2
-275 -10 -340 -25 -8 -1 -14 3 -13 10 4 16 -16 16 -22 0 -6 -15 -45 -22 -133
-22 -61 -1 -65 1 -92 34 -16 19 -31 47 -34 61 -3 15 -8 39 -12 54 -6 25 -5 27
17 19 13 -4 67 -10 119 -13 65 -4 94 -10 93 -18 -2 -6 4 -23 11 -38 l14 -26 6
26 c4 14 13 25 21 25 8 0 15 7 15 15 0 12 14 15 60 16 33 1 65 3 70 4 6 1 42
3 80 4 39 0 70 5 70 11 0 5 -21 8 -47 7 -34 -1 -47 2 -46 11 4 16 -14 16 -21
0 -5 -10 -7 -10 -12 0 -8 18 -24 15 -24 -5 -1 -17 -1 -17 -14 -1 -9 12 -16 14
-23 7 -14 -14 -103 -21 -103 -8 0 5 -8 9 -17 9 -15 0 -16 -2 -3 -10 11 -7 1
-10 -35 -11 -139 -2 -211 3 -232 17 -24 15 -53 19 -53 6 0 -12 -58 -72 -69
-72 -6 0 -11 -4 -11 -10 0 -14 -18 -12 -23 2 -2 7 -3 4 -1 -7 2 -14 -9 -29
-36 -48 -21 -15 -43 -27 -49 -27 -6 0 -11 -4 -11 -10 0 -17 -18 -11 -23 8 -3
12 -5 11 -6 -6 -2 -37 -58 -56 -255 -87 l-38 -6 20 33 c11 18 29 50 41 71 32
57 55 97 90 155 17 29 31 59 31 67 0 8 7 15 15 15 8 0 15 8 15 18 0 10 25 56
55 102 30 47 55 88 55 93 0 12 -17 8 -30 -8 -7 -8 -19 -15 -26 -15 -8 0 -14
-4 -14 -10 0 -5 -5 -10 -11 -10 -8 0 -8 4 0 14 19 23 -4 28 -32 6 -14 -11 -30
-20 -36 -20 -6 0 -11 -6 -11 -14 0 -18 -74 -89 -78 -76 -2 5 6 20 18 32 12 13
30 35 41 49 l19 27 -25 -2 c-14 0 -25 -5 -25 -10 0 -4 -9 -6 -20 -3 -10 3 -19
2 -18 -2 2 -19 -3 -24 -12 -11 -8 13 -10 13 -10 -2 0 -22 -86 -83 -93 -65 -3
7 -6 5 -6 -5 -1 -10 -5 -18 -10 -18 -5 0 -12 8 -14 18 -3 11 -5 8 -6 -9 0 -14
-8 -34 -16 -45 -14 -19 -14 -18 -15 4 0 12 5 22 10 22 6 0 10 7 10 16 0 8 -4
12 -10 9 -6 -4 -10 25 -10 79 0 46 -3 91 -6 100 -9 22 -24 20 -24 -4 0 -11
-11 -43 -24 -72 -13 -29 -30 -70 -37 -90 -7 -21 -16 -34 -19 -29 -3 6 -6 -7
-6 -28 -1 -20 -7 -48 -15 -62 -7 -13 -20 -44 -29 -69 -8 -25 -21 -44 -28 -43
-7 2 -12 -9 -12 -30 -1 -17 -7 -43 -15 -57 -8 -14 -15 -34 -15 -45 0 -11 -4
-26 -9 -33 -13 -21 -61 6 -61 35 0 12 -5 23 -11 23 -6 0 -8 -9 -4 -21 5 -16 3
-20 -6 -17 -8 3 -13 15 -11 28 2 17 -1 20 -10 13 -15 -12 -32 -6 -76 26 -17
14 -32 34 -33 45 0 12 -3 15 -6 9 -2 -7 -9 -13 -13 -13 -14 0 -60 84 -60 108
0 14 -5 20 -14 16 -15 -6 -42 50 -38 78 2 13 -1 16 -12 12 -19 -7 -22 22 -3
29 9 4 9 7 -1 15 -10 7 -8 13 12 25 18 12 26 13 30 4 4 -6 4 0 1 15 -3 15 -1
36 4 45 5 10 22 52 36 93 14 41 30 82 35 91 6 11 -1 25 -24 50 -17 19 -48 55
-69 80 l-37 46 37 31 c21 17 68 56 105 86 36 31 69 56 72 56 17 0 -14 -132
-60 -253 -16 -43 -18 -66 -5 -52 5 6 16 35 24 65 48 162 66 227 69 243 2 13
19 2 73 -49 39 -37 84 -79 101 -95 16 -16 34 -29 39 -29 5 0 -38 45 -96 100
l-104 100 30 24 c17 14 34 25 39 26 5 0 16 8 25 18 9 9 31 30 49 47 28 25 34
27 42 15 8 -12 10 -9 10 10 0 18 16 38 60 73 32 26 64 47 69 47 5 0 44 34 87
75 78 74 95 85 74 46 -7 -14 -7 -21 0 -21 5 0 10 6 10 14 0 7 7 19 15 26 8 7
15 17 15 22 0 6 -7 4 -17 -3 -14 -12 -16 -12 -11 1 5 17 33 21 33 5 -1 -5 -4
-48 -8 -95 -10 -120 5 -492 20 -497 7 -3 16 18 23 54 7 32 16 63 20 68 4 6 19
73 34 150 15 77 31 160 36 185 82 377 84 398 62 570 -25 192 -26 207 -9 207 9
0 14 -4 11 -9 -3 -5 -3 -17 1 -26 6 -16 7 -16 20 1 8 11 11 25 8 33 -3 8 0 14
6 14 6 0 11 -14 11 -31 0 -17 4 -28 10 -24 6 3 10 2 10 -4 0 -5 -4 -13 -10
-16 -5 -3 -10 -24 -10 -47 0 -31 -4 -41 -20 -45 -15 -4 -18 -11 -13 -37 7 -38
7 -38 25 -31 9 4 13 15 11 29 -3 16 0 23 11 23 10 0 16 -9 16 -24 0 -12 5 -23
10 -23 6 0 10 -19 11 -42 l1 -43 10 34 c7 25 6 41 -2 57 -7 13 -9 28 -4 35 10
16 26 -38 27 -88 1 -38 21 -44 32 -10 6 19 8 19 12 5 8 -29 23 -20 23 13 0 27
2 30 15 19 8 -7 15 -23 15 -36 0 -13 5 -24 10 -24 6 0 8 10 4 24 -6 27 13 46
22 22 9 -25 26 -7 20 20 -4 14 -2 24 4 24 9 0 15 -22 11 -43 -1 -4 7 -11 16
-14 10 -4 24 -13 31 -19 7 -7 34 -30 59 -51 64 -52 83 -71 83 -84 0 -7 12 5
26 26 28 41 28 57 2 203 -8 47 -8 66 1 75 6 6 11 16 11 21 0 6 -4 5 -9 -2 -5
-9 -10 8 -14 46 -4 32 -9 67 -13 76 -6 16 -3 17 17 11 52 -15 94 -43 100 -66
5 -21 7 -22 14 -6 9 22 22 22 70 -3 45 -23 65 -25 65 -7 0 47 -114 407 -156
490 -13 27 -24 57 -24 67 0 10 -4 22 -10 25 -5 3 -10 14 -10 24 0 23 -35 94
-54 111 -9 7 -16 18 -16 24 0 43 -144 146 -203 146 -41 0 -87 12 -81 21 3 5
22 9 43 9 21 0 53 7 70 16 33 16 85 89 110 152 14 33 41 44 41 16 0 -9 -6 -14
-13 -11 -10 4 -14 -4 -14 -24 0 -21 5 -29 18 -29 10 0 21 5 24 10 4 7 12 7 25
0 25 -14 27 -13 33 11 3 12 10 18 16 15 6 -4 5 -19 -5 -41 -8 -21 -10 -35 -4
-35 5 0 10 7 10 15 0 8 4 15 9 15 5 0 18 3 28 7 16 6 16 5 4 -10 -11 -14 -11
-20 -1 -32 7 -9 19 -14 27 -11 7 3 13 -1 13 -8 0 -8 -4 -16 -9 -18 -6 -1 -7
-22 -4 -45 6 -46 27 -58 38 -23 8 24 28 26 45 5 10 -12 9 -20 -4 -40 -16 -25
-16 -27 6 -53 12 -15 53 -54 91 -87 38 -33 83 -72 99 -87 17 -16 34 -28 39
-28 5 0 9 -7 9 -16 0 -8 -4 -12 -10 -9 -5 3 -22 -6 -36 -20 -25 -25 -25 -27
-10 -60 9 -18 19 -47 22 -64 8 -37 18 -45 59 -46 19 0 29 -5 27 -12 -1 -7 3
-13 9 -13 7 0 9 -9 6 -21 -4 -15 0 -23 14 -26 10 -3 17 -9 14 -13 -3 -5 -1
-11 5 -15 5 -3 10 -17 10 -30 0 -13 7 -30 15 -39 8 -8 15 -22 15 -30 0 -18 11
-21 26 -6 11 11 4 67 -20 165 -8 33 -22 92 -31 130 -8 39 -20 81 -26 95 -13
28 -28 90 -33 132 -1 15 -8 33 -14 41 -6 7 -13 31 -15 53 -2 23 -8 38 -15 37
-6 -2 -9 4 -5 13 3 9 -7 28 -27 50 -19 18 -31 36 -28 39 13 13 105 -109 163
-217 27 -51 30 -63 15 -53 -16 10 -12 -11 5 -25 12 -10 15 -10 15 1 1 21 40
-33 40 -54 0 -11 4 -15 11 -11 9 5 10 -1 5 -22 -5 -21 -4 -25 3 -14 8 12 13 8
26 -20 21 -48 38 -73 54 -84 7 -4 24 -31 37 -60 31 -66 52 -102 87 -147 15
-20 27 -41 27 -48 0 -6 9 -29 19 -50 11 -20 28 -62 39 -92 47 -127 62 -162 76
-178 19 -22 46 -105 35 -109 -8 -3 -109 31 -174 58 -11 5 -54 20 -95 35 -64
23 -97 36 -132 53 -5 2 -8 -2 -8 -9 0 -7 -11 -25 -25 -39 -24 -25 -125 -205
-125 -223 0 -5 -8 -21 -18 -35 -26 -38 -96 -229 -126 -341 -23 -87 -29 -98
-76 -143 -27 -26 -50 -56 -50 -67 0 -10 12 -35 26 -56 14 -21 23 -46 21 -57
-3 -10 -1 -16 4 -12 5 3 9 1 9 -5 0 -21 98 -156 108 -147 2 3 -5 21 -16 40
-17 29 -18 35 -5 40 8 3 86 6 173 6 l158 0 -5 40 c-3 22 -2 40 3 39 5 0 59
-27 119 -60 111 -59 213 -110 250 -124 11 -5 40 -16 65 -25 42 -15 45 -19 53
-66 10 -54 -8 -230 -25 -251 -6 -8 -16 -9 -26 -4 -10 5 -60 14 -112 21 -52 6
-105 14 -117 17 -13 3 -23 1 -23 -5 0 -5 35 -15 78 -21 42 -6 103 -17 134 -25
31 -7 61 -10 66 -7 18 12 30 48 41 130 10 65 10 99 0 155 -13 79 -79 223 -144
319 -22 32 -45 67 -51 78 -6 11 -20 30 -30 43 -11 12 -23 29 -29 38 -32 48
-73 97 -105 122 l-35 30 32 -35 c32 -35 143 -186 143 -195 0 -3 20 -33 44 -67
45 -64 151 -265 143 -273 -6 -7 -89 26 -108 43 -8 7 -20 13 -26 13 -6 0 -35
15 -66 33 -30 17 -102 55 -159 82 l-105 50 -7 80 c-4 44 -9 142 -12 219 l-6
139 29 -6 c15 -4 22 -4 16 -1 -7 3 -13 12 -13 20 0 8 -4 14 -10 14 -5 0 -10 5
-10 10 0 6 8 10 18 10 15 1 -45 39 -138 87 -88 46 -101 55 -96 60 6 6 39 -9
186 -83 63 -31 66 -32 78 -14 11 18 94 82 137 106 146 80 167 89 249 100 27 3
73 14 102 23 52 18 53 18 59 -3 4 -12 6 -27 6 -34 -1 -6 3 -20 8 -30 8 -14 11
-9 12 23 1 22 1 43 0 48 0 4 3 7 9 7 5 0 10 -7 10 -16 0 -20 40 -87 47 -80 3
3 -7 30 -21 61 -15 30 -24 60 -21 65 4 6 25 -8 47 -30 23 -22 44 -38 47 -35 2
3 -12 22 -32 41 l-36 36 -1 356 c0 197 -5 491 -11 656 -6 164 -8 309 -5 322 7
28 -1 31 -109 39 -44 3 -129 10 -190 16 -122 11 -214 3 -225 -21 -23 -49 -46
-87 -62 -104 -15 -17 -18 -17 -18 -3 0 14 -13 16 -97 15 -106 -1 -95 -15 13
-17 75 -1 95 -17 70 -56 -19 -29 -15 -32 9 -9 22 23 41 4 26 -24 -22 -42 -70
-65 -134 -66 l-60 -1 -1 44 c-1 36 -5 45 -25 53 -56 20 -120 110 -135 186 -7
41 7 48 57 27 58 -24 77 -17 23 10 -89 43 -122 115 -73 156 28 23 36 23 53 2
7 -10 14 -13 14 -7 0 6 -9 19 -20 29 -26 24 -25 36 6 59 20 14 35 17 67 12 30
-4 38 -3 27 4 -8 5 -22 10 -30 10 -19 0 -85 104 -93 148 -8 39 1 59 51 114 37
41 34 57 -11 58 -23 0 -18 20 8 34 59 33 58 27 7 97 -56 77 -72 104 -72 123 0
8 17 47 37 86 30 58 38 85 41 141 4 64 12 83 27 59 3 -5 13 -10 22 -10 9 0 -3
13 -26 30 -38 28 -47 54 -18 48 25 -4 77 14 77 28 0 17 34 19 48 2 15 -19 3
-66 -22 -84 l-21 -16 23 5 c18 4 22 1 22 -21 0 -15 11 -45 25 -67 13 -22 33
-59 45 -82 11 -24 26 -43 33 -43 6 0 13 -10 15 -22 1 -13 5 -50 8 -82 l6 -60
-48 -42 -49 -41 53 -8 c28 -4 52 -11 52 -15 0 -5 -21 -19 -47 -31 -37 -18 -43
-24 -28 -27 52 -10 67 -44 81 -181 8 -77 -21 -172 -64 -208 -11 -10 -9 -14 17
-27 19 -10 32 -12 36 -6 3 6 21 10 40 10 18 0 64 13 101 29 38 16 89 34 114
41 59 16 140 57 146 75 3 8 27 28 52 44 26 17 66 48 90 69 l44 39 -10 199 c-6
109 -11 302 -12 428 0 126 -3 233 -6 237 -5 9 59 4 136 -11z m6286 -102 c-3
-40 -6 -174 -7 -298 -2 -227 -6 -300 -18 -298 -3 1 -51 -3 -106 -10 -130 -15
-475 -21 -475 -7 0 6 -2 124 -4 263 -2 138 -2 261 1 271 4 16 18 20 101 26 54
3 158 8 233 9 l137 3 7 -162 c4 -90 4 -206 0 -259 -5 -62 -4 -96 3 -96 15 0
25 223 17 376 l-7 136 58 58 c33 32 61 58 63 59 2 1 1 -32 -3 -71z m-13836
-138 c32 -31 55 -47 65 -44 8 4 15 10 15 15 0 5 3 9 8 9 4 0 8 -27 9 -60 1
-60 -10 -80 -20 -37 -8 29 -34 64 -42 56 -3 -4 4 -23 16 -43 11 -20 18 -43 15
-52 -3 -8 1 -22 9 -30 8 -9 14 -25 14 -37 -1 -17 -2 -18 -6 -4 -2 9 -9 17 -14
17 -6 0 -8 -9 -4 -19 3 -11 1 -22 -5 -26 -15 -9 -12 -28 4 -22 19 8 46 -35 46
-73 0 -17 -9 -39 -20 -50 -25 -25 -25 -33 -2 -26 14 5 17 0 16 -24 -2 -48 -3
-50 -24 -50 -23 0 -27 25 -5 34 8 3 15 10 15 15 0 5 -13 5 -30 -2 -16 -6 -30
-17 -30 -23 0 -16 -128 -144 -143 -144 -15 0 -53 -57 -49 -72 2 -6 -3 -18 -10
-27 -23 -29 -48 -78 -42 -84 4 -3 20 7 38 23 56 53 58 34 3 -30 -21 -25 -31
-30 -37 -21 -5 9 -10 10 -14 2 -4 -6 -1 -11 6 -11 7 -1 -1 -13 -18 -28 -25
-21 -33 -38 -38 -79 -4 -34 -3 -53 4 -53 5 0 10 -7 10 -15 0 -8 -4 -15 -10
-15 -5 0 -10 -19 -11 -42 0 -40 -1 -41 -11 -18 -11 24 -12 24 -15 3 -2 -12 5
-40 16 -62 13 -24 17 -42 11 -46 -15 -9 -30 4 -30 25 0 11 -5 40 -12 64 -9 35
-9 56 2 103 7 32 17 63 21 68 4 6 10 28 14 50 5 32 4 37 -5 22 -20 -32 -50
-150 -51 -202 l-1 -50 -10 37 c-19 73 38 351 71 345 8 -1 28 27 50 68 20 39
53 92 74 119 20 27 37 55 37 63 0 7 15 27 34 44 19 16 40 45 46 64 10 31 40
68 40 49 0 -5 -8 -27 -19 -49 -10 -22 -27 -67 -36 -100 -10 -33 -22 -70 -28
-82 -6 -13 -8 -26 -4 -29 7 -7 47 69 47 89 0 20 41 117 49 117 4 0 5 -17 3
-37 -2 -29 -1 -34 7 -23 6 8 11 30 11 48 0 19 10 48 22 65 l22 30 -22 -5 c-14
-4 -22 -2 -21 5 3 27 -2 47 -11 47 -5 0 -10 -11 -10 -25 0 -14 -8 -29 -20 -35
-17 -9 -20 -6 -29 27 -6 21 -11 44 -11 51 0 6 -4 12 -9 12 -5 0 -9 -6 -8 -12
1 -32 -4 -49 -13 -43 -5 3 -7 11 -4 18 6 17 -23 42 -56 50 -18 4 -30 17 -39
42 -7 19 -29 51 -48 70 l-36 35 34 0 c19 -1 52 -7 74 -15 22 -8 47 -15 56 -15
9 0 24 -9 34 -20 10 -11 21 -18 24 -15 4 2 24 -11 45 -30 31 -27 36 -38 30
-57 -6 -20 -5 -21 10 -9 9 7 16 18 16 24 0 13 -50 59 -107 98 -24 17 -43 35
-43 41 0 5 -11 19 -26 30 -36 29 -30 64 11 60 17 -2 36 -9 43 -14 7 -6 16 -8
20 -4 4 4 -2 14 -12 22 -11 8 -15 14 -8 14 6 0 34 -22 62 -50z m12519 -114 c1
-29 -2 -46 -9 -46 -7 0 -9 8 -5 20 3 11 2 20 -4 20 -5 0 -13 -9 -16 -21 -5
-15 -1 -25 14 -35 26 -18 27 -49 4 -64 -13 -8 -14 -13 -5 -16 6 -3 12 -12 12
-20 0 -9 5 -12 10 -9 6 3 10 -2 10 -12 0 -20 -39 -75 -40 -55 0 23 -20 12 -20
-11 0 -17 -15 -34 -52 -60 -61 -42 -47 -50 19 -11 41 23 44 24 34 6 -15 -28
-14 -45 3 -39 7 3 19 0 25 -6 23 -23 68 50 51 82 -13 26 0 34 23 14 27 -25
147 -30 217 -9 79 24 84 22 77 -20 -6 -35 -30 -63 -54 -64 -7 0 -10 7 -6 16 5
14 2 16 -22 10 -22 -6 -26 -4 -22 8 12 30 -20 23 -47 -10 -28 -35 -56 -45 -56
-19 0 8 8 15 18 15 11 0 7 7 -16 21 -39 26 -63 20 -54 -13 5 -22 32 -57 32
-42 0 3 6 2 13 -4 7 -5 21 -6 32 -1 11 4 34 8 50 8 17 -1 23 -3 15 -6 -8 -2
-29 -11 -47 -19 -40 -18 -97 -18 -157 0 -42 13 -50 13 -66 -1 -15 -13 -17 -27
-13 -99 2 -46 0 -84 -4 -84 -5 0 -21 6 -36 13 -26 12 -47 63 -33 85 3 5 1 22
-4 38 -8 23 -9 15 -7 -37 l3 -67 -41 5 c-39 4 -39 4 20 -22 33 -14 70 -30 83
-35 22 -10 31 -30 12 -30 -6 0 -22 7 -35 16 -14 9 -25 13 -25 9 0 -4 -11 0
-24 9 -14 8 -43 19 -66 22 -34 6 -41 10 -38 28 2 11 15 27 31 34 15 7 27 17
27 23 0 13 -11 11 -29 -5 -26 -22 -81 -36 -142 -36 -55 0 -69 7 -52 24 4 4 8
15 8 24 0 9 7 17 15 17 9 0 15 -9 15 -24 0 -26 19 -39 30 -22 3 6 1 11 -4 11
-6 0 -11 8 -11 18 0 12 3 13 8 5 6 -9 12 -8 24 6 15 18 14 19 -13 25 -29 6
-42 36 -15 36 17 0 76 57 76 73 0 7 -11 -1 -25 -18 l-25 -30 -20 25 c-51 61
-71 122 -77 223 -3 58 -2 97 4 97 17 0 68 -83 87 -142 10 -31 29 -66 42 -77
13 -11 28 -38 35 -60 13 -43 34 -58 24 -18 -23 91 -37 340 -21 366 4 6 18 11
32 11 54 0 107 -195 69 -254 -18 -28 -6 -37 15 -11 7 9 32 73 56 143 24 70 43
123 43 118 1 -6 6 -5 13 2 17 17 24 7 27 -42z m2208 -48 c24 -22 31 -62 13
-73 -7 -4 -9 2 -5 18 4 14 2 28 -4 31 -6 4 -11 1 -11 -6 0 -9 -14 -14 -42 -14
-31 -1 -37 1 -23 7 12 4 14 8 6 8 -24 1 -61 -41 -61 -69 0 -32 45 -62 80 -53
16 4 21 3 16 -5 -4 -7 -25 -11 -47 -10 -23 1 -44 -3 -47 -9 -4 -5 -15 -12 -24
-16 -10 -3 -18 -11 -18 -17 0 -7 6 -7 21 0 32 17 32 7 0 -14 -34 -23 -84 -103
-77 -122 9 -24 -14 -15 -25 10 -6 13 -20 27 -30 29 -27 7 -23 27 5 27 29 0 83
58 91 98 11 51 60 145 90 174 36 34 61 35 92 6z m-14364 -129 c9 -17 17 -39
17 -50 0 -12 -6 -18 -17 -17 -10 1 -31 0 -48 -1 -24 -2 -26 -4 -12 -10 16 -6
13 -12 -27 -49 -25 -23 -46 -45 -46 -48 0 -10 45 19 58 38 13 18 42 25 42 11
-1 -5 -7 -19 -15 -33 -16 -27 -20 -54 -7 -46 4 3 14 28 22 57 11 41 20 53 42
61 17 6 25 15 21 24 -6 17 6 18 30 0 18 -14 24 -46 7 -46 -5 0 -24 -17 -42
-37 -60 -67 -69 -75 -85 -69 -9 4 -23 -4 -36 -20 -27 -34 -125 -97 -142 -91
-7 3 -18 0 -24 -6 -8 -8 -11 -7 -11 5 0 9 5 20 10 23 6 3 10 15 10 26 0 10 5
19 10 19 6 0 10 9 10 19 0 11 6 22 13 24 7 3 5 6 -5 6 -12 1 -18 9 -18 26 0
43 60 86 73 53 3 -7 6 6 6 30 1 24 -4 52 -9 63 -14 25 -4 29 88 32 74 2 93 12
45 23 -47 10 -49 12 -13 13 29 1 38 -4 53 -30z m11050 -45 c-6 -27 -94 -256
-113 -293 -4 -9 -20 -41 -35 -71 -15 -30 -39 -77 -53 -105 -14 -27 -37 -68
-52 -90 -14 -22 -44 -74 -65 -115 -52 -104 -112 -205 -157 -267 -21 -29 -44
-65 -50 -80 -7 -15 -26 -49 -43 -75 -16 -25 -45 -74 -64 -107 -19 -33 -51 -78
-72 -98 -21 -21 -39 -43 -39 -50 0 -7 -19 -34 -42 -61 -65 -74 -87 -100 -125
-151 -41 -54 -49 -61 -126 -124 -66 -53 -156 -102 -231 -124 -28 -8 -56 -19
-62 -24 -6 -5 -42 -11 -80 -15 l-69 -6 -42 42 c-40 41 -41 42 -36 98 l5 57
-38 21 c-31 16 -39 26 -39 48 -1 21 5 30 23 37 63 24 72 88 20 139 -27 27 -36
30 -93 30 -54 0 -66 3 -75 20 -8 15 -7 28 5 55 27 55 18 70 -42 73 -29 2 -68
-1 -86 -6 -40 -11 -90 6 -101 33 -7 18 1 474 9 553 4 31 2 41 -7 36 -7 -4 -3
6 9 22 11 16 23 39 27 51 12 39 47 73 107 104 32 16 59 34 59 40 0 7 5 8 13 2
7 -5 46 -4 97 3 73 10 78 12 36 13 -76 2 -43 19 45 24 41 2 85 9 97 16 35 19
188 10 176 -11 -4 -6 -36 -7 -78 -3 -42 4 -82 2 -98 -4 -34 -13 -39 -36 -5
-25 19 6 63 9 207 14 14 0 43 -2 64 -6 29 -5 42 -3 50 8 17 23 39 27 60 9 18
-15 19 -15 13 2 -6 16 -5 16 19 1 19 -13 28 -14 37 -5 8 8 4 11 -16 11 -15 0
-27 5 -27 10 0 6 15 10 34 10 19 0 38 5 41 10 3 6 18 10 32 10 26 0 26 0 -7
-22 -51 -35 -47 -43 20 -44 34 0 55 3 48 8 -7 4 -25 8 -40 8 -45 0 -32 18 23
34 35 11 57 13 69 6 24 -13 61 -14 41 -1 -19 12 -6 17 89 31 151 21 284 49
335 70 144 60 187 87 217 142 21 37 38 49 38 27 0 -6 19 5 41 25 39 33 70 46
94 41 6 -1 9 -6 8 -11z m-6694 -108 c15 -8 40 -31 55 -50 21 -29 27 -45 24
-78 -3 -36 -8 -45 -33 -58 -26 -13 -103 -68 -142 -100 -7 -5 -23 -10 -35 -10
-24 0 -54 -35 -38 -45 5 -3 11 -1 15 5 3 5 18 10 33 10 17 0 32 8 40 21 7 11
29 27 48 35 19 8 37 21 41 29 3 8 14 15 25 15 12 0 16 4 12 11 -5 8 1 10 19 7
15 -3 24 -1 21 4 -9 14 47 69 60 59 6 -4 27 -11 46 -15 19 -3 58 -13 87 -22
49 -15 52 -18 49 -45 -3 -24 -1 -27 11 -18 8 7 12 18 9 26 -3 7 -1 13 4 13 6
0 10 -4 10 -10 0 -5 9 -10 20 -10 11 0 64 -22 118 -48 165 -82 189 -91 397
-151 108 -30 135 -34 135 -20 0 15 89 171 103 180 5 4 42 17 83 30 64 20 72
25 60 39 -19 21 -30 60 -17 60 5 0 12 -8 15 -17 3 -10 20 -34 36 -53 45 -51
60 -87 60 -140 0 -52 15 -107 36 -130 19 -19 18 0 -2 40 -23 45 -14 148 21
225 27 63 65 109 65 80 0 -8 -4 -15 -10 -15 -5 0 -10 -5 -10 -12 0 -6 -9 -31
-20 -54 -24 -48 -41 -142 -29 -150 5 -3 9 5 9 18 1 31 24 115 34 125 5 4 5
-17 1 -47 -4 -30 -9 -79 -11 -108 -2 -29 -6 -57 -9 -62 -3 -6 -1 -10 4 -10 23
0 42 76 44 172 1 54 5 98 9 98 13 0 19 -146 9 -209 -12 -73 -33 -111 -61 -111
-13 0 -18 -5 -14 -15 9 -21 43 -10 70 22 22 25 22 25 42 7 11 -11 42 -62 68
-114 27 -52 55 -101 62 -108 42 -45 -22 -16 -75 34 -6 6 -26 16 -45 23 -18 7
-41 17 -50 22 -10 5 -26 9 -35 9 -10 0 -31 7 -46 15 -20 10 -35 12 -53 5 -22
-9 -29 -6 -52 20 -57 65 -151 13 -111 -62 11 -21 11 -20 -20 1 -17 13 -36 21
-42 19 -6 -2 8 -16 31 -32 43 -28 44 -31 11 -50 -11 -6 -44 -26 -74 -44 -62
-36 -213 -83 -327 -101 -41 -7 -93 -17 -115 -23 -22 -6 -85 -14 -140 -19 -55
-4 -134 -11 -175 -15 l-75 -7 90 89 c77 75 93 97 103 137 7 26 12 58 12 72 0
19 5 25 23 25 12 1 33 8 47 16 25 15 24 15 -13 9 -21 -3 -45 -9 -53 -12 -9 -3
-14 2 -14 15 0 32 77 39 275 24 61 -5 121 -5 135 -2 24 7 23 7 -10 15 -82 18
-162 22 -276 12 -118 -10 -122 -10 -145 11 -12 12 -28 22 -34 22 -6 0 -26 14
-43 31 -110 107 -321 179 -399 136 -28 -15 -96 -107 -125 -169 -13 -27 -29
-48 -36 -48 -7 0 -20 16 -29 35 -16 33 -13 61 13 120 2 6 -15 10 -43 10 -42 0
-49 3 -70 34 -17 25 -23 47 -22 85 1 81 17 104 19 26 0 -47 6 -71 19 -87 31
-37 80 -34 104 7 17 28 17 31 0 49 -10 10 -29 22 -43 26 -37 11 -50 25 -50 51
0 15 -6 24 -15 24 -21 0 -19 6 12 48 39 52 74 85 103 99 36 17 146 16 179 -1z
m8583 -170 c53 -23 62 -39 60 -113 l-2 -65 40 -16 c66 -28 66 -69 0 -118 -43
-31 -50 -57 -23 -86 19 -21 41 -22 94 -6 22 6 42 9 45 6 7 -8 -31 -82 -58
-114 -12 -13 -39 -29 -61 -35 -95 -25 -143 29 -121 140 7 31 76 111 98 111 6
0 22 10 36 21 l25 20 -25 -7 c-40 -10 -89 -43 -115 -78 -43 -57 -43 -180 1
-217 8 -6 37 -11 65 -10 43 1 59 6 95 36 29 24 47 49 55 76 15 48 33 46 37 -4
6 -65 52 -42 122 61 58 86 95 83 204 -21 42 -40 103 -94 136 -122 33 -27 60
-55 60 -61 0 -6 7 -17 15 -24 40 -33 70 -232 43 -283 -65 -121 -125 -179 -238
-234 -70 -34 -131 -39 -224 -19 l-76 17 0 40 c0 24 -4 38 -10 34 -5 -3 -10
-19 -10 -36 0 -16 -2 -29 -4 -29 -13 0 -129 76 -133 87 -3 7 -12 13 -20 13
-10 0 -14 7 -10 19 6 23 -27 81 -46 81 -7 0 -17 -4 -23 -9 -5 -4 -21 -11 -36
-15 -22 -5 -27 -2 -30 16 -2 17 -11 24 -33 26 -41 4 -62 -15 -73 -64 -13 -56
4 -84 59 -101 65 -19 102 -16 143 12 42 28 47 30 63 14 9 -9 0 -22 -38 -51
-27 -22 -49 -46 -49 -53 0 -7 -3 -22 -6 -32 -3 -10 4 -2 15 17 l20 35 1 -32
c0 -33 14 -53 60 -86 24 -17 24 -17 -15 -2 -21 9 -47 23 -57 32 -10 9 -21 13
-26 8 -4 -4 1 -12 12 -19 53 -32 57 -40 68 -126 5 -47 14 -93 19 -103 6 -9 7
-32 4 -51 -5 -23 -2 -42 9 -59 9 -13 14 -32 10 -41 -3 -9 -1 -23 6 -31 7 -9
16 -32 20 -53 4 -20 11 -46 16 -57 7 -17 6 -18 -8 -8 -8 7 -18 10 -21 6 -12
-11 -8 -23 8 -23 18 0 20 -48 3 -85 -6 -14 -8 -28 -3 -33 4 -4 10 -1 12 6 8
22 35 14 28 -8 -8 -24 -3 -25 35 -5 55 28 31 -2 -37 -47 -81 -54 -123 -75
-223 -114 -71 -27 -84 -28 -233 -29 -129 0 -159 3 -167 15 -7 10 -10 11 -10 3
0 -8 -15 -13 -40 -13 -39 0 -40 1 -34 26 9 34 -13 48 -42 29 -20 -13 -23 -12
-29 3 -6 13 -10 10 -20 -18 -8 -20 -14 -27 -14 -17 -1 10 -8 25 -16 33 -13 14
-15 14 -15 -1 0 -13 -4 -14 -21 -4 -19 10 -20 9 -14 -13 l7 -23 -26 24 c-25
24 -38 17 -14 -7 9 -9 9 -15 -1 -24 -10 -10 -15 -10 -18 -2 -2 8 -18 10 -42 7
-33 -5 -39 -2 -44 16 -3 11 -13 21 -23 21 -38 0 -129 55 -183 109 -58 60 -121
141 -121 157 0 5 -11 36 -24 69 -13 33 -29 78 -34 100 -16 59 -23 312 -11 360
49 186 78 237 150 266 24 10 58 18 75 18 18 1 34 7 36 14 3 6 -1 44 -8 82 -7
39 -13 98 -13 133 -1 35 -5 71 -10 80 -10 19 -41 312 -41 386 0 58 -19 138
-31 130 -11 -7 -11 -1 1 31 7 18 15 25 28 21 9 -3 36 -10 60 -16 25 -6 42 -17
42 -25 0 -9 6 -12 15 -9 8 3 28 0 45 -7 31 -14 38 -25 20 -31 -5 -2 -6 -9 -1
-16 7 -12 12 -12 30 -1 33 21 66 -17 68 -79 1 -61 18 -219 32 -302 5 -36 11
-89 12 -118 2 -29 8 -56 14 -60 14 -9 35 -147 35 -234 0 -37 5 -70 10 -73 6
-3 10 -30 10 -60 0 -30 5 -57 10 -60 6 -4 8 -10 5 -15 -3 -4 1 -39 9 -76 8
-38 12 -72 10 -76 -3 -4 0 -15 5 -25 5 -10 14 -76 20 -148 6 -71 18 -161 26
-200 17 -80 19 -125 6 -125 -5 0 -39 20 -75 44 -71 48 -86 49 -33 3 34 -30
100 -63 185 -93 28 -10 52 -22 52 -26 0 -11 -18 -10 -41 2 -22 12 -24 7 -8
-21 8 -16 14 -18 24 -9 10 8 14 7 18 -2 3 -8 6 -5 6 6 1 16 7 18 35 13 l34 -5
11 76 c13 92 28 223 41 350 10 97 11 105 35 292 23 177 20 312 -9 423 -33 123
-46 327 -30 462 25 205 52 272 129 316 56 32 104 37 157 15z m1682 -28 c19
-27 21 -48 4 -48 -14 -1 -58 -34 -58 -44 0 -4 11 1 25 10 14 9 25 12 25 6 0
-33 -91 -42 -146 -16 -29 14 -34 21 -34 50 0 24 -5 34 -15 34 -10 0 -15 -8
-14 -22 1 -13 1 -50 1 -82 -2 -47 -5 -57 -14 -48 -7 7 -25 12 -40 12 -30 0
-35 9 -17 27 6 6 11 28 11 48 0 29 5 39 20 43 13 3 18 11 15 23 -6 23 7 26
125 28 89 1 98 -1 112 -21z m-400 -84 c9 -3 16 -11 16 -18 0 -6 11 -32 25 -59
14 -26 22 -47 17 -47 -5 0 -9 -6 -9 -12 -4 -79 -7 -109 -16 -143 -5 -22 -11
-47 -12 -55 -1 -8 -5 -41 -10 -73 -5 -41 -13 -60 -26 -68 -23 -12 -26 3 -5 24
9 8 11 19 6 28 -7 11 -10 10 -16 -4 -3 -9 -10 -15 -14 -12 -11 6 16 60 30 61
23 3 24 5 6 19 -16 12 -17 15 -4 15 10 0 18 13 22 38 11 67 10 68 -40 67 -39
0 -48 -4 -55 -22 -11 -30 -47 -65 -54 -53 -4 6 -17 10 -31 10 -20 0 -23 3 -15
18 9 15 55 108 120 242 24 49 34 56 65 44z m-11460 -180 c5 -13 9 -14 20 -5
10 8 16 9 21 2 3 -6 16 -10 28 -10 55 2 272 -23 290 -33 12 -6 30 -20 41 -31
31 -29 159 -123 197 -145 19 -10 59 -27 89 -37 115 -38 112 -36 105 -64 -4
-14 -11 -30 -16 -36 -9 -9 -93 4 -164 25 -97 29 -201 65 -209 72 -6 4 -17 8
-26 8 -46 0 -397 160 -407 186 -3 8 -10 14 -16 14 -18 0 -47 32 -47 52 0 15 8
18 44 18 31 0 46 -5 50 -16z m8220 -73 c10 -113 5 -127 -52 -137 -26 -4 -39
-9 -28 -12 10 -2 39 2 63 9 38 10 46 10 54 -2 5 -8 8 -18 8 -24 -1 -17 -70
-69 -90 -68 -11 1 -19 -2 -19 -8 0 -20 -39 -8 -43 14 -4 18 -5 17 -6 -7 -1
-20 -5 -27 -15 -23 -8 3 -20 -1 -26 -9 -10 -11 -8 -14 11 -14 26 0 26 0 34
-95 5 -58 22 -138 24 -112 2 29 14 19 58 -46 32 -48 54 -69 92 -87 28 -14 51
-28 51 -32 0 -12 -48 -10 -55 2 -3 6 -17 10 -30 10 -15 0 -45 22 -87 64 -53
53 -152 127 -201 150 -9 5 -9 7 1 12 15 7 16 44 1 44 -5 0 -7 5 -4 10 9 14
108 13 123 -2 6 -6 14 -9 17 -6 6 5 -53 59 -98 90 -37 25 -34 84 4 97 15 5 29
7 32 5 8 -8 16 82 11 117 -6 33 -5 34 26 34 31 0 32 -1 27 -38 -3 -20 -1 -35
3 -32 8 5 50 111 65 161 4 15 11 20 24 17 15 -4 20 -19 25 -82z m-6160 -27
c12 -32 5 -106 -14 -147 -11 -24 -44 -66 -73 -94 -53 -53 -149 -110 -155 -93
-2 6 -11 3 -19 -6 -10 -9 -29 -14 -51 -12 -29 2 -37 8 -42 27 -3 14 -11 26
-18 29 -14 4 -16 -10 -3 -23 5 -6 11 -30 13 -55 2 -40 0 -45 -19 -48 -17 -2
-24 5 -34 32 -7 20 -19 36 -26 36 -15 0 -17 -14 -3 -39 7 -14 5 -23 -9 -35
-17 -16 -19 -14 -39 31 -12 26 -31 59 -42 73 l-21 25 7 -30 c4 -16 15 -44 25
-61 11 -17 19 -45 19 -63 0 -30 13 -41 25 -21 3 5 12 7 19 4 22 -9 117 27 184
69 35 22 66 36 70 32 4 -4 -3 -14 -15 -22 -30 -20 -29 -33 1 -33 20 0 22 -4
18 -26 -4 -20 -2 -25 7 -19 8 4 18 -1 27 -14 9 -12 20 -19 25 -16 5 4 9 -1 9
-9 0 -9 -9 -16 -21 -16 -12 0 -17 -4 -13 -11 4 -7 26 -8 63 -4 66 8 123 -8
101 -28 -10 -9 -13 -9 -17 1 -3 6 -12 12 -20 12 -13 0 -13 -2 -2 -17 13 -15 9
-16 -46 -9 -127 15 -165 17 -165 6 0 -6 23 -10 55 -10 30 0 55 -4 55 -9 0 -12
-62 -21 -150 -21 -56 0 -86 -5 -115 -20 -48 -24 -78 -18 -110 24 -32 42 -58
112 -52 136 4 15 0 20 -17 20 -24 0 -76 53 -76 79 0 18 18 41 32 41 4 0 17
-18 28 -39 19 -38 37 -57 45 -49 3 2 -6 20 -20 39 -13 18 -27 46 -30 61 -6 21
-3 26 12 25 15 -2 19 7 21 45 3 46 2 48 -37 67 -45 24 -63 44 -35 41 11 -1 98
-1 194 0 145 2 167 4 130 12 -41 10 -43 11 -21 19 56 21 91 -13 91 -89 0 -81
-5 -85 -71 -67 -111 30 -105 29 -91 14 7 -8 16 -14 20 -15 4 0 34 -6 66 -14
l59 -14 29 34 c38 46 36 77 -9 130 -26 30 -33 45 -24 48 11 4 11 6 0 14 -10 6
-7 7 9 3 17 -5 27 -1 37 12 7 10 16 15 20 12 3 -4 -1 -14 -10 -23 -15 -15 -15
-17 -1 -32 9 -8 16 -20 16 -26 0 -5 7 -7 16 -4 12 5 15 2 10 -10 -3 -8 -6 -35
-6 -59 0 -32 -7 -51 -25 -73 -30 -36 -33 -52 -4 -26 50 45 63 122 34 205 -17
48 -17 49 45 73 25 10 52 22 60 26 25 15 67 11 74 -6z m6322 -167 c-3 -13 -6
-106 -7 -207 -1 -178 -1 -182 -19 -164 -11 11 -30 49 -43 87 -23 64 -24 67 -6
67 11 0 19 -4 19 -10 0 -5 4 -10 8 -10 10 0 8 118 -2 127 -3 4 -6 -1 -6 -10 0
-9 -5 -19 -10 -22 -13 -8 -2 45 11 60 5 5 9 17 9 26 0 9 7 20 15 23 9 3 15 11
14 18 -3 25 1 38 12 38 7 0 9 -9 5 -23z m-465 -85 c-5 -10 -17 -24 -25 -31 -8
-7 -20 -34 -27 -61 -9 -34 -16 -47 -26 -43 -12 5 -14 -6 -9 -58 2 -35 5 -68 5
-73 1 -6 7 -1 15 10 10 12 18 15 24 9 20 -22 61 -103 55 -109 -3 -3 -20 -6
-37 -6 -24 0 -40 10 -73 47 -41 46 -43 51 -43 112 0 77 30 139 92 189 45 36
64 41 49 14z m3251 -52 c6 0 8 -11 5 -25 -4 -24 -3 -25 13 -10 23 21 34 4 15
-21 -19 -25 -20 -61 -2 -46 10 9 19 7 36 -4 21 -15 21 -17 4 -29 -17 -13 -17
-14 2 -28 19 -15 18 -15 -16 -22 -28 -5 -35 -11 -37 -31 -1 -14 -9 -32 -17
-41 -9 -8 -14 -18 -11 -21 8 -8 46 38 46 55 0 8 6 13 13 10 6 -2 24 0 40 4 16
5 25 4 22 -2 -4 -5 -2 -9 4 -9 5 0 12 6 14 13 3 7 6 4 6 -7 1 -15 4 -16 16 -6
8 7 13 16 10 20 -3 4 2 13 10 20 22 18 19 6 -16 -60 -34 -66 -42 -74 -34 -32
4 17 -5 6 -23 -28 -32 -62 -32 -74 -1 -39 l21 24 -15 -25 c-8 -14 -22 -24 -31
-24 -9 1 -16 -2 -16 -6 0 -10 -139 -54 -147 -47 -3 4 7 12 23 19 39 16 38 15
22 32 -10 9 -20 11 -29 5 -8 -5 -10 -9 -5 -9 5 0 1 -9 -9 -20 -21 -23 -56 -11
-51 18 2 9 7 46 10 82 11 104 26 157 67 237 22 42 40 83 40 92 1 9 4 4 6 -11
2 -16 9 -28 15 -28z m-12789 -192 c21 -24 51 -59 66 -78 14 -19 32 -41 39 -48
28 -30 99 -140 115 -177 19 -47 37 -142 37 -200 0 -28 -9 -55 -29 -87 -34 -53
-70 -81 -129 -99 -33 -9 -41 -16 -36 -28 10 -24 21 -77 33 -156 13 -80 1 -177
-24 -205 -8 -9 -15 -22 -15 -28 0 -7 -4 -12 -9 -12 -5 0 -13 -9 -16 -20 -4
-11 -11 -17 -17 -14 -7 5 -9 1 -5 -9 8 -22 -28 -76 -106 -154 -124 -124 -130
-132 -123 -164 l6 -30 -35 28 c-52 41 -105 164 -105 241 0 21 -8 44 -19 56
-29 32 -51 125 -51 213 0 144 -34 281 -76 303 -13 8 -22 20 -20 27 9 23 -11
14 -37 -16 -46 -55 -115 -195 -127 -259 -20 -97 -8 -201 33 -307 36 -95 120
-263 187 -378 22 -38 40 -74 40 -80 0 -7 -18 -25 -40 -40 l-40 -28 -1 23 c0
22 -1 22 -9 3 -5 -11 -9 -28 -9 -38 -1 -16 5 -14 37 11 57 45 105 72 128 72
34 0 74 -47 74 -87 0 -35 -15 -73 -33 -85 -13 -8 52 -100 107 -150 45 -42 164
-108 194 -108 12 0 23 -4 27 -9 3 -6 27 -13 53 -17 26 -4 58 -11 71 -16 13 -4
58 -9 100 -9 63 -1 80 -4 99 -22 12 -11 22 -25 22 -30 0 -5 -10 -7 -22 -4 -21
5 -20 4 5 -14 31 -24 33 -35 10 -61 -11 -12 -30 -18 -58 -18 -44 0 -65 13 -65
41 0 10 -4 20 -8 23 -4 2 -6 -10 -4 -29 3 -28 -2 -39 -33 -69 -20 -20 -33 -36
-28 -36 5 0 14 5 19 10 7 7 22 1 46 -17 39 -30 53 -60 38 -78 -7 -8 6 -10 45
-7 49 4 57 1 80 -23 28 -31 32 -57 12 -73 -10 -9 -19 -7 -35 4 -27 19 -29 44
-2 44 11 0 20 5 20 10 0 14 -13 12 -35 -4 -17 -12 -18 -18 -7 -40 l12 -26 -48
0 c-26 0 -71 6 -99 13 l-52 14 88 -87 c48 -48 88 -95 88 -105 0 -33 -29 -55
-69 -55 -39 0 -48 13 -28 38 7 9 7 9 -2 2 -21 -17 -43 -11 -73 20 -16 16 -33
30 -37 30 -5 0 4 -12 19 -26 18 -18 24 -28 16 -31 -7 -3 -13 -10 -13 -16 0 -8
4 -7 12 1 19 19 24 15 48 -30 12 -24 33 -56 47 -72 23 -27 73 -118 73 -132 0
-3 -7 -4 -15 0 -8 3 -15 1 -15 -4 0 -6 5 -10 10 -10 15 0 12 -36 -5 -50 -11
-9 -20 -8 -45 10 -30 21 -39 40 -19 40 5 0 7 5 4 10 -5 8 -11 8 -20 0 -10 -8
-18 -8 -32 0 -20 13 -93 155 -93 181 0 9 -7 22 -15 29 -8 7 -15 29 -15 49 0
20 -5 43 -10 51 -8 13 -10 12 -10 -2 0 -10 -6 -18 -12 -18 -10 0 -10 -2 -1 -8
10 -6 21 -104 23 -201 0 -19 3 -31 7 -27 8 7 6 84 -3 129 -3 16 -1 27 5 27 6
0 11 -10 11 -23 0 -13 4 -27 8 -33 5 -5 14 -29 21 -54 17 -57 36 -122 55 -182
16 -52 15 -54 -15 -37 -19 10 -19 9 -9 -10 6 -12 21 -21 33 -21 l22 0 -24 -19
c-13 -10 -52 -23 -87 -30 -58 -12 -62 -15 -51 -32 8 -13 13 -15 19 -6 5 8 8 7
8 -5 0 -22 -78 -37 -92 -17 -8 12 -10 12 -15 0 -5 -11 -7 -11 -14 0 -6 10 -9
11 -9 2 0 -8 -15 -13 -40 -13 l-40 0 0 54 0 54 -42 6 c-24 3 -70 9 -103 12
-64 6 -64 6 -170 55 -80 37 -179 119 -230 190 -19 27 -35 52 -35 57 -1 11 -50
68 -50 57 0 -5 9 -23 21 -40 11 -16 24 -40 29 -52 5 -13 14 -23 19 -23 5 0 14
-13 21 -30 7 -16 16 -30 20 -30 4 0 32 -24 63 -54 l54 -54 2 -101 c1 -65 -2
-101 -9 -101 -5 0 -10 10 -11 23 0 21 0 21 -9 1 -6 -16 -15 -19 -44 -16 -28 3
-36 9 -37 26 -1 11 -5 71 -9 131 l-7 110 1 -133 c1 -99 -2 -132 -11 -132 -12
0 -17 36 -14 95 l1 20 -9 -20 c-5 -11 -10 -37 -10 -57 l-1 -38 -46 0 -46 0 4
40 c2 22 -1 42 -7 44 -5 2 -6 7 -2 12 12 13 27 -17 27 -54 0 -18 4 -31 9 -28
5 3 8 20 7 37 -1 18 3 33 11 36 17 7 16 21 -2 39 -12 12 -15 47 -17 162 -1 81
-2 172 -3 202 0 47 -17 118 -44 194 -4 11 -7 -10 -7 -47 1 -36 4 -59 7 -49 17
44 31 -52 35 -241 2 -110 8 -206 14 -217 9 -17 7 -20 -15 -20 -22 0 -25 3 -19
25 4 15 2 25 -5 25 -6 0 -11 -11 -11 -25 0 -19 -5 -25 -22 -25 -17 0 -19 3
-10 12 7 7 12 19 12 27 -1 9 -7 4 -16 -12 -11 -21 -21 -27 -35 -24 -10 3 -21
1 -24 -4 -11 -17 -36 4 -56 47 -24 54 -37 56 -41 7 -3 -38 -28 -60 -28 -24 0
11 -5 23 -10 26 -15 9 -12 -22 5 -55 16 -32 30 -38 38 -18 3 7 6 -8 6 -34 l1
-48 -35 0 -35 0 -2 83 -2 82 -3 -70 c-4 -87 -14 -113 -23 -65 l-7 35 -2 -32
c-1 -35 -10 -39 -69 -27 -24 5 -31 12 -35 38 -9 60 25 478 41 500 4 6 15 36
24 66 10 30 19 62 22 70 2 8 5 -22 5 -68 1 -48 5 -81 10 -77 5 3 7 38 4 78 -4
48 0 99 11 151 19 92 18 86 7 86 -5 0 -12 -15 -16 -33 -19 -97 -40 -149 -70
-170 -44 -32 -96 -59 -102 -53 -10 9 7 74 22 86 9 8 15 28 14 54 -1 22 2 52 6
66 4 18 0 31 -15 48 l-22 23 -24 -26 c-19 -20 -24 -37 -24 -76 0 -48 1 -49 29
-49 31 0 49 -14 31 -25 -5 -3 -19 -1 -31 6 -17 9 -20 8 -14 -2 13 -21 5 -134
-14 -207 -29 -106 -84 -157 -185 -174 -51 -9 -76 -8 -100 0 -18 7 -41 12 -52
13 -10 0 -32 9 -49 20 -16 10 -39 23 -50 28 -53 24 -108 75 -127 118 -17 40
-19 59 -14 142 8 132 11 151 35 215 35 93 67 149 110 189 40 38 43 39 105 36
36 -2 68 0 72 4 4 4 -3 7 -15 7 -25 0 -24 13 9 85 10 22 31 69 45 105 15 36
48 106 74 155 26 50 69 137 95 195 27 58 62 124 78 147 15 23 28 47 28 53 0 6
7 13 15 16 8 4 15 14 15 23 0 20 40 106 77 165 15 22 46 79 70 124 24 46 61
107 82 135 79 108 210 526 211 672 1 141 68 232 146 196 33 -15 44 -14 44 3 0
8 8 24 19 37 17 21 21 22 50 10 36 -15 35 -12 19 -64 -10 -33 -9 -41 3 -51 7
-6 21 -24 29 -40 20 -39 33 -38 47 4 l12 35 0 -32 c1 -36 12 -40 54 -20 25 11
35 25 53 72 6 17 8 15 14 -15 9 -43 12 -39 15 22 1 26 -2 45 -6 42 -5 -3 -9 8
-9 25 0 41 32 59 66 36 13 -8 24 -21 24 -29 0 -7 9 -21 20 -31 24 -22 42 -10
72 49 55 109 80 119 141 54z m4457 17 c17 -9 30 -22 30 -30 0 -27 -24 -105
-32 -105 -4 0 -8 -4 -8 -10 0 -20 17 -10 30 18 13 26 13 26 25 -38 7 -36 17
-110 24 -165 6 -55 16 -138 21 -185 6 -47 13 -105 16 -129 l7 -44 -36 7 c-24
4 -37 3 -37 -4 0 -5 4 -10 8 -10 13 0 11 -33 -2 -49 -9 -12 -7 -12 14 -1 23
12 24 12 11 -3 -17 -22 -9 -97 13 -113 9 -6 16 -17 15 -25 0 -10 -2 -11 -6 -1
-2 6 -11 12 -19 12 -8 0 -13 3 -12 8 1 4 -5 20 -13 37 l-14 29 -6 -44 -5 -45
-7 40 c-4 22 -11 58 -16 80 -6 22 -6 44 -1 49 5 5 13 -11 18 -35 l10 -44 1 42
c1 23 -4 45 -10 49 -6 3 -9 14 -6 24 2 9 -4 22 -14 28 -22 14 -36 64 -44 157
-4 39 -15 102 -25 140 -23 84 -43 283 -34 322 13 51 51 65 104 38z m7291 -82
c11 -13 11 -17 2 -20 -7 -3 -13 -16 -13 -29 0 -19 5 -24 27 -24 31 0 63 26 63
52 0 24 27 23 40 -2 12 -23 8 -32 -29 -72 -31 -33 -79 -36 -126 -9 -37 21 -46
72 -19 102 21 23 37 24 55 2z m264 -174 c22 -12 52 -29 68 -36 15 -8 27 -19
27 -24 0 -5 16 -9 35 -9 19 0 35 -5 35 -11 0 -15 -116 -1 -153 18 -16 8 -31
12 -34 9 -3 -2 15 -15 38 -27 40 -20 58 -22 193 -21 82 1 151 4 154 7 3 3 -16
5 -42 5 -29 0 -45 4 -41 10 3 6 15 10 26 10 10 0 28 6 39 12 16 10 24 10 40 0
11 -6 26 -12 33 -12 8 0 22 -9 32 -20 16 -18 16 -20 2 -20 -10 0 -14 -6 -11
-14 9 -24 -13 -55 -36 -49 -11 3 -20 1 -20 -3 0 -5 -4 -15 -9 -23 -8 -12 -12
-12 -25 -2 -13 11 -16 11 -16 -2 0 -18 -29 -28 -98 -33 -40 -3 -74 3 -130 23
-76 26 -109 43 -83 43 7 0 20 -4 30 -9 27 -15 141 -24 141 -12 0 6 -6 11 -12
11 -49 2 -126 14 -140 21 -23 12 -51 11 -43 -1 7 -12 -12 -12 -40 0 -19 8 -18
9 4 9 34 1 10 27 -33 35 -41 8 -53 21 -57 61 -3 21 0 29 10 27 8 -2 11 3 8 13
-4 8 -2 15 3 15 6 0 10 5 10 10 0 6 6 17 13 24 10 12 15 12 27 1 8 -7 33 -23
55 -36z m-7966 -334 c-1 -40 -1 -39 -14 15 -14 64 -13 67 -58 -120 -51 -207
-59 -260 -51 -333 l7 -65 -42 -22 c-29 -14 -46 -18 -54 -11 -12 9 -47 -8 -47
-23 0 -11 50 -6 85 8 36 15 45 12 45 -15 0 -13 -13 -22 -42 -31 -34 -9 -38
-13 -20 -16 12 -2 36 3 52 11 42 22 46 4 8 -34 -18 -18 -25 -30 -15 -26 9 4
24 10 33 13 14 6 14 4 2 -15 -12 -20 -62 -40 -138 -55 -14 -3 0 -3 32 0 31 2
64 7 74 11 14 5 16 3 11 -11 -4 -10 -7 -26 -7 -36 0 -12 -6 -17 -18 -13 -11 3
-34 -12 -64 -41 -25 -25 -50 -46 -55 -46 -12 0 -35 117 -43 215 -5 73 -1 112
27 223 3 12 9 22 14 22 5 0 9 8 9 19 0 27 47 151 65 171 8 9 15 24 15 33 0 27
44 117 58 117 6 0 12 6 12 13 0 6 17 39 38 72 21 33 42 69 46 80 7 17 10 13
22 -25 7 -25 13 -63 13 -85z m8439 68 c2 -14 -4 -27 -17 -35 -12 -7 -21 -20
-22 -28 0 -10 -2 -11 -6 -3 -8 22 -43 -9 -43 -39 0 -15 -4 -30 -10 -33 -13 -8
-13 -25 -1 -25 5 0 13 15 17 33 l8 32 6 -30 c4 -16 3 -34 -2 -39 -4 -6 -8 -17
-8 -25 0 -11 4 -10 20 4 25 23 33 16 21 -18 -7 -18 -15 -25 -26 -21 -11 5 -14
2 -9 -10 3 -9 10 -16 15 -16 5 0 9 -10 8 -22 0 -23 0 -23 -9 -2 -7 17 -16 21
-42 19 -44 -4 -42 -3 -28 -20 10 -12 9 -15 -4 -15 -12 0 -16 7 -14 23 2 15 10
22 25 22 12 0 25 4 29 8 4 4 0 7 -9 7 -18 0 -19 20 -2 32 6 5 6 11 -2 19 -15
15 -45 -5 -37 -26 3 -7 -4 -19 -15 -27 -17 -12 -65 -117 -57 -125 11 -11 36
13 37 36 2 22 2 23 6 4 4 -22 4 -21 46 7 23 16 44 26 47 23 3 -2 -3 -9 -13
-14 -9 -6 -17 -19 -17 -29 0 -25 16 -26 24 -3 4 10 10 13 14 8 11 -16 32 -16
32 0 0 16 25 21 34 6 7 -10 -16 -71 -26 -71 -4 0 -4 7 -1 17 4 10 2 14 -4 10
-6 -4 -16 -21 -22 -37 -6 -18 -6 -28 -1 -25 6 4 10 3 10 -2 0 -12 -39 -73 -46
-73 -3 0 1 11 10 25 18 27 20 35 8 35 -14 0 -31 -46 -26 -67 6 -20 -31 -92
-53 -106 -7 -4 -13 -20 -13 -35 l-1 -27 -13 31 c-8 18 -19 35 -25 38 -14 9 -4
53 21 89 16 22 17 31 8 42 -6 8 -9 19 -5 25 8 13 -53 92 -66 84 -16 -9 -10 11
20 69 16 31 34 69 40 84 9 25 33 69 111 201 20 34 30 42 50 40 17 -2 26 -10
28 -25z m579 -103 c23 0 42 -10 68 -35 19 -20 35 -42 35 -49 0 -7 -19 -22 -42
-34 -24 -11 -79 -38 -123 -59 -64 -30 -96 -55 -163 -123 -46 -47 -97 -104
-113 -127 -20 -29 -39 -44 -61 -49 -35 -7 -100 -35 -108 -45 -9 -11 -83 -40
-88 -34 -8 7 12 61 59 163 22 46 39 88 39 93 0 25 124 185 175 226 51 41 210
92 255 82 19 -5 49 -9 67 -9z m-2902 -201 c50 -6 92 -13 94 -15 6 -5 -44 -51
-114 -106 -62 -47 -107 -92 -74 -72 19 11 57 40 142 109 74 61 99 77 79 52
-10 -11 -13 -45 -12 -114 4 -219 1 -273 -15 -273 -8 0 -15 -3 -15 -6 0 -3 7
-12 15 -20 13 -13 15 -61 15 -310 0 -162 -4 -294 -8 -294 -5 0 -40 16 -77 36
-38 20 -96 44 -129 53 l-61 16 -1 340 c-1 276 1 344 13 363 10 17 11 22 1 20
-8 -2 -14 9 -15 27 0 17 -4 69 -9 118 l-7 87 44 0 c24 0 85 -5 134 -11z
m-1940 -115 c28 -15 62 -34 77 -43 82 -50 122 -71 130 -71 5 0 50 -30 100 -66
51 -37 102 -71 115 -77 13 -6 23 -14 23 -18 0 -4 17 -15 38 -24 45 -20 53 -24
122 -62 30 -16 97 -52 148 -79 50 -26 92 -52 92 -56 0 -7 -31 -19 -65 -24 -99
-16 -172 -26 -235 -34 -41 -4 -113 -14 -158 -21 -99 -15 -128 -7 -207 51 -66
50 -86 68 -118 111 -41 55 -32 68 13 17 40 -46 175 -136 187 -124 3 3 2 6 -4
6 -5 0 -23 12 -39 26 -16 14 -46 34 -66 45 -20 10 -49 34 -63 53 -33 44 -85
145 -85 165 1 9 8 3 17 -14 9 -16 35 -51 59 -77 53 -57 58 -75 8 -27 l-37 34
35 -50 c33 -48 79 -85 183 -146 53 -31 96 -41 61 -14 -11 8 -26 15 -33 15 -8
0 -26 11 -41 25 -15 14 -31 25 -37 25 -12 1 -92 70 -81 70 4 0 21 -10 38 -21
l30 -22 -13 22 c-8 11 -17 21 -21 21 -15 0 -127 144 -133 172 -4 16 -25 58
-46 94 -22 36 -37 70 -33 77 4 7 4 9 -1 5 -4 -4 -19 15 -32 42 -13 28 -28 50
-34 50 -6 0 -7 5 -3 11 4 7 16 2 33 -14 14 -14 49 -38 76 -53z m-19 -309 c-11
-44 54 -179 114 -234 45 -41 183 -121 210 -120 15 0 19 3 10 6 -8 3 -19 12
-23 20 -5 7 -12 11 -17 8 -11 -7 -90 32 -90 44 0 4 -12 14 -27 22 -33 18 -143
147 -142 168 0 11 5 8 17 -9 36 -53 78 -93 134 -131 81 -54 177 -99 210 -99
16 0 28 -4 28 -10 0 -5 10 -10 23 -10 12 0 29 -5 37 -10 15 -10 -28 -15 -92
-10 -16 1 -28 -3 -28 -9 0 -8 69 -11 219 -11 147 0 243 -5 293 -14 41 -8 104
-14 141 -15 37 0 75 -5 85 -10 16 -9 75 -23 217 -52 116 -25 127 -29 114 -45
-7 -9 -21 -13 -32 -10 -14 3 -17 1 -13 -11 6 -16 -10 -43 -25 -43 -5 0 -5 8
-2 17 5 14 3 13 -13 -3 -18 -18 -19 -20 -3 -31 20 -15 32 -53 16 -53 -8 0 -7
-4 1 -12 16 -16 16 -68 -1 -68 -7 0 -18 9 -25 20 -13 21 -91 65 -100 56 -3 -3
11 -13 31 -21 49 -20 76 -51 162 -180 40 -60 90 -126 111 -145 95 -89 163
-159 193 -200 l31 -44 -25 -26 c-14 -14 -25 -30 -25 -36 -1 -5 -19 -27 -40
-49 -22 -22 -40 -44 -40 -50 0 -12 85 80 107 118 16 25 43 37 43 19 0 -21 134
-159 192 -198 35 -24 68 -47 73 -52 6 -4 27 -16 48 -25 20 -10 37 -22 37 -27
0 -6 5 -10 11 -10 6 0 46 -27 88 -60 43 -33 83 -60 89 -60 5 0 12 -4 14 -8 2
-4 20 -20 40 -36 47 -35 109 -37 224 -5 79 22 186 31 200 16 10 -9 -26 -36
-48 -37 -21 0 -23 11 -6 28 13 13 8 15 -16 6 -22 -8 -20 -31 3 -46 24 -15 12
-28 -59 -62 -80 -38 -97 -35 -146 29 -15 19 -15 19 -9 -5 4 -14 8 -34 8 -45 1
-11 5 -25 9 -30 3 -6 9 -26 13 -46 6 -33 4 -39 -24 -58 -17 -12 -31 -26 -31
-30 0 -14 71 -41 110 -41 21 0 50 -4 64 -10 23 -8 26 -16 28 -57 l1 -48 4 43
c4 36 7 42 19 31 8 -7 14 -29 14 -55 0 -42 -12 -58 -23 -31 -3 7 -6 5 -6 -6
-1 -14 -7 -16 -28 -11 -35 7 -86 26 -93 33 -7 8 -122 85 -134 90 -6 2 11 -26
37 -62 26 -36 47 -69 47 -74 0 -4 -9 -14 -20 -21 -12 -7 -18 -17 -14 -23 4 -7
15 -2 29 11 19 18 26 20 43 9 19 -12 19 -14 4 -46 -12 -26 -13 -36 -4 -45 9
-9 12 -8 12 8 0 10 7 27 15 37 13 18 14 18 32 -2 11 -13 17 -34 15 -54 -1 -17
2 -48 7 -67 10 -35 10 -35 -8 -13 -10 12 -21 20 -24 16 -9 -8 -68 31 -97 64
-34 38 -54 77 -74 148 -10 33 -21 72 -26 87 -7 21 -4 30 12 45 11 10 27 18 36
18 13 0 15 11 14 60 -2 33 -10 74 -19 92 -17 32 -23 34 -133 49 -77 10 -90 20
-92 78 -1 44 -2 45 -5 14 -5 -47 -18 -49 -28 -5 -7 32 -7 32 -16 7 -18 -45 51
-107 121 -110 38 -1 117 -20 138 -33 6 -5 12 -15 12 -24 0 -12 -3 -13 -14 -4
-10 9 -24 9 -48 2 l-33 -9 32 -1 c37 -1 46 -12 45 -53 0 -15 4 -26 9 -23 5 4
9 -1 9 -9 0 -22 -42 -20 -90 4 -23 12 -40 28 -40 38 0 15 -2 15 -10 2 -7 -11
-3 -21 18 -38 l27 -24 -30 7 c-81 20 -173 38 -281 55 -69 11 -71 12 -82 47 -6
19 -8 41 -5 49 3 8 0 14 -5 14 -11 0 -62 99 -62 120 0 14 -55 128 -75 155 -10
15 -11 24 -4 35 9 13 10 12 5 -2 -8 -25 9 -22 26 5 27 41 9 52 -28 16 -44 -43
-45 -17 -1 29 30 33 31 34 5 17 -16 -9 -28 -21 -28 -25 0 -20 -33 -17 -68 5
-88 57 -112 77 -112 91 0 8 -5 14 -10 14 -12 0 -115 81 -150 119 -24 26 -125
101 -135 101 -4 0 -124 84 -160 112 -5 5 -26 21 -47 36 -66 49 -216 172 -220
180 -3 8 -178 165 -253 227 -27 22 -55 48 -64 57 -8 10 -18 14 -21 9 -3 -5
-20 4 -38 20 -18 16 -29 29 -25 29 4 0 18 -10 32 -22 22 -19 21 -17 -3 9 -16
18 -33 30 -38 27 -9 -6 -92 55 -85 62 2 2 32 -5 66 -17 35 -11 68 -18 74 -16
7 3 -1 8 -18 12 -16 4 -34 11 -40 15 -5 4 -23 10 -40 13 -54 9 -109 35 -123
56 -9 13 -25 21 -43 21 -18 0 -39 11 -59 30 -17 17 -35 30 -40 30 -5 0 -22 11
-37 25 -108 97 -152 167 -160 256 -5 48 -3 60 6 54 7 -4 10 -17 7 -30z m-6221
-10 c104 -6 178 -28 279 -83 40 -21 48 -21 364 -30 l273 -7 -43 -46 c-24 -25
-52 -49 -62 -53 -10 -3 -16 -9 -13 -13 11 -10 81 42 107 80 21 31 30 36 73 39
27 2 51 0 52 -3 2 -3 -18 -22 -46 -42 -48 -37 -67 -48 -204 -122 -38 -20 -74
-41 -80 -46 -5 -5 -26 -9 -46 -9 -20 0 -42 -7 -49 -15 -7 -8 -29 -15 -49 -15
-46 0 -82 -10 -76 -20 3 -5 -8 -11 -25 -15 -16 -3 -52 -18 -81 -31 -28 -14
-56 -23 -62 -21 -7 3 8 14 33 25 59 27 36 28 -35 1 -30 -11 -53 -24 -50 -29 3
-5 0 -12 -6 -16 -8 -4 -9 -3 -5 4 4 7 1 12 -8 12 -21 0 -96 -40 -96 -51 0 -4
-6 -6 -12 -4 -20 7 -163 -51 -166 -68 -2 -8 -13 -19 -25 -25 -12 -6 -38 -21
-57 -34 -27 -17 -32 -18 -21 -4 8 9 33 27 55 38 23 12 36 23 29 25 -32 11
-105 -53 -160 -140 -32 -50 -73 -132 -73 -143 0 -13 90 139 90 152 0 7 7 15
16 18 12 5 15 2 9 -11 -12 -29 -42 -125 -54 -173 -31 -118 -64 -206 -84 -221
-4 -3 -5 -12 -2 -21 3 -8 -1 -21 -10 -28 -8 -7 -15 -23 -15 -36 0 -26 -28
-104 -43 -119 -6 -7 -7 2 -3 25 4 19 10 49 12 65 8 54 15 80 24 85 5 3 3 46
-3 96 -7 49 -10 103 -7 119 4 17 5 61 4 98 -2 60 7 113 31 169 5 12 2 16 -12
14 -13 -2 -20 -15 -26 -52 -4 -27 -12 -68 -17 -92 -13 -53 -13 -102 -1 -102 9
0 6 -68 -4 -117 -3 -13 -1 -23 4 -23 28 0 1 -123 -34 -159 -11 -12 -14 -6 -20
35 -4 27 -20 73 -37 102 -16 29 -27 61 -24 70 3 9 1 24 -4 32 -8 13 -10 12
-10 -4 0 -19 -1 -19 -23 2 -45 42 -123 212 -97 212 5 0 13 -12 16 -27 9 -36
51 -120 64 -128 16 -10 12 2 -13 43 -13 20 -26 46 -30 57 -3 11 -14 50 -26 88
-11 37 -21 99 -23 138 -1 45 -7 73 -15 76 -26 10 8 166 52 238 14 22 31 54 39
71 17 34 84 99 136 130 19 12 58 25 85 29 28 4 70 11 95 15 40 6 79 6 245 -5z
m11202 -124 c5 -76 -4 -188 -23 -278 -2 -13 -12 -23 -22 -23 -10 0 -13 3 -6 8
5 4 15 33 20 64 9 47 8 56 -2 47 -18 -15 -32 38 -14 54 10 10 12 7 7 -10 -3
-16 -1 -23 9 -23 9 0 14 12 14 36 0 33 -2 35 -17 23 -16 -13 -17 -12 -5 3 17
22 6 41 -20 35 -11 -3 -21 0 -25 9 -3 8 -11 13 -19 10 -7 -3 -17 1 -23 8 -8
10 2 26 38 65 32 34 51 48 54 39 4 -8 6 -7 6 5 1 21 -12 22 -29 2 -7 -8 -18
-15 -24 -15 -6 1 5 14 24 30 44 38 49 29 57 -89z m-10804 -498 c-9 -7 -20 -10
-26 -6 -10 6 -27 -14 -27 -34 0 -6 10 -13 23 -15 18 -2 23 -10 25 -45 2 -26
-1 -43 -7 -43 -15 0 -14 -57 1 -62 19 -7 17 -105 -2 -104 -10 1 -15 -9 -15
-31 0 -18 5 -32 10 -30 6 1 9 13 7 27 -2 18 0 22 7 14 13 -12 3 -133 -10 -135
-5 -1 -15 -2 -21 -3 -7 -1 -12 -9 -12 -19 2 -23 1 -22 -35 14 -18 18 -31 41
-31 56 0 20 -3 23 -14 14 -10 -9 -17 -6 -30 13 -9 14 -16 31 -16 38 0 9 3 9
10 -2 13 -21 22 -7 14 24 -5 21 -9 24 -24 16 -15 -8 -21 -4 -34 22 -26 52 -20
103 19 168 43 70 128 152 149 144 11 -4 16 0 16 12 0 16 1 16 19 -2 17 -17 17
-20 4 -31z m7964 -133 c20 -41 27 -76 31 -141 4 -78 2 -92 -23 -147 -15 -33
-40 -73 -56 -88 l-29 -28 -1 65 c-1 178 3 334 8 343 4 6 6 29 4 51 l-3 40 22
-20 c12 -11 33 -44 47 -75z m-7380 -282 c15 -24 30 -45 33 -48 4 -3 16 -21 28
-40 11 -20 32 -48 45 -64 28 -32 25 -61 -7 -80 -11 -7 -51 -32 -88 -55 -37
-24 -71 -40 -76 -37 -6 3 -13 -1 -16 -10 -3 -8 -20 -22 -38 -30 -18 -8 -53
-26 -78 -40 -25 -15 -64 -37 -88 -51 -23 -13 -58 -38 -77 -55 -20 -17 -42 -28
-50 -25 -8 4 -16 -1 -20 -12 -3 -9 -32 -35 -65 -56 -33 -21 -60 -42 -60 -47 0
-4 -4 -8 -9 -8 -5 0 -29 -18 -52 -40 -24 -22 -48 -40 -54 -40 -7 0 -18 -12
-26 -27 -7 -16 -23 -41 -35 -58 -19 -27 -86 -161 -142 -285 -11 -25 -34 -76
-51 -114 -18 -38 -30 -74 -28 -80 3 -6 9 0 15 14 5 14 21 50 35 80 14 30 39
86 56 123 17 38 34 66 39 63 5 -3 23 -36 41 -73 18 -37 36 -75 41 -84 22 -41
40 -147 39 -227 l-2 -87 -12 105 c-13 107 -34 184 -81 287 l-26 58 -9 -31 c-5
-17 -27 -65 -49 -108 -22 -42 -40 -81 -40 -87 0 -5 -8 -27 -18 -48 -16 -33
-17 -48 -9 -110 8 -66 5 -93 -8 -79 -3 3 -9 32 -14 64 -10 69 -14 33 -5 -44 4
-29 12 -52 18 -52 7 0 17 -31 24 -70 15 -86 15 -123 2 -115 -6 4 -10 -13 -10
-45 0 -47 2 -51 20 -45 23 7 26 -1 6 -21 -21 -21 -56 -18 -56 5 0 17 -22 44
-31 38 -2 -1 -3 0 -2 2 5 8 -60 92 -83 107 -13 9 -22 19 -20 23 11 18 -36 54
-99 76 -38 13 -71 23 -72 21 -5 -5 98 -46 114 -46 17 0 33 -40 34 -88 1 -20 3
-29 6 -20 2 10 8 18 13 18 10 0 7 -61 -4 -79 -4 -6 0 -18 8 -27 9 -8 16 -26
16 -38 0 -13 6 -29 14 -35 7 -6 16 -25 20 -41 3 -17 11 -30 18 -30 16 -1 39
-33 58 -79 12 -29 12 -35 0 -39 -9 -3 -6 -10 10 -22 12 -9 28 -33 35 -53 11
-33 11 -35 -4 -27 -9 4 -25 17 -36 27 -39 36 -133 73 -183 72 l-47 -1 55 -9
c30 -5 78 -21 107 -35 61 -29 153 -125 153 -158 0 -14 -18 -42 -45 -70 -43
-43 -48 -46 -98 -46 -102 0 -342 45 -372 70 -7 6 -17 10 -21 9 -21 -3 -35 2
-55 24 -12 12 -19 16 -15 10 11 -20 -13 -15 -69 12 -27 14 -56 25 -64 25 -9 0
-11 6 -6 17 4 10 9 38 11 63 2 25 8 59 12 75 l9 30 31 -62 32 -62 36 15 c19 8
44 12 55 9 11 -4 19 -2 19 4 0 6 -9 11 -19 11 -11 0 -23 4 -26 10 -3 5 -12 10
-18 10 -7 0 -6 -4 3 -10 18 -11 13 -17 -20 -22 -20 -2 -29 5 -52 50 l-28 52
25 10 c21 8 25 16 24 47 l-2 38 -6 -34 c-4 -23 -13 -37 -30 -42 -22 -9 -23 -7
-18 23 22 126 21 122 36 105 7 -10 19 -17 25 -17 6 0 4 5 -4 10 -12 8 -13 13
-2 30 6 11 12 27 12 35 0 8 9 23 20 32 11 10 20 22 20 29 0 6 9 19 19 28 11
10 22 29 25 42 4 15 11 22 18 18 7 -5 8 -3 3 6 -5 8 0 19 13 29 11 9 23 32 27
51 4 22 4 31 -2 25 -12 -13 -93 -143 -93 -150 0 -8 -71 -118 -90 -140 -10 -11
-21 -31 -25 -45 -10 -34 -72 -117 -119 -160 -67 -60 -79 -70 -87 -70 -5 0 -30
-20 -56 -45 -26 -25 -64 -50 -83 -56 -19 -7 -44 -18 -55 -24 -11 -7 -58 -23
-105 -35 -66 -17 -103 -21 -167 -18 -79 4 -86 7 -150 51 -38 25 -82 61 -99 79
-34 36 -134 191 -134 208 0 6 -7 25 -16 42 -9 17 -29 83 -45 147 -35 144 -39
255 -9 333 28 75 140 236 218 315 63 62 116 37 170 -79 34 -75 65 -108 100
-108 57 0 88 43 98 137 9 72 29 102 69 103 33 0 53 -16 124 -99 24 -28 49 -51
56 -51 6 0 20 -9 30 -20 31 -35 45 -25 25 18 -9 20 -23 67 -30 103 -11 57 -11
71 4 116 19 57 36 75 85 92 67 22 148 14 225 -23 39 -19 83 -47 97 -63 32 -34
109 -147 129 -188 8 -16 23 -40 34 -52 11 -13 14 -23 8 -23 -6 0 -24 18 -38
40 -29 43 -34 47 -34 27 0 -18 71 -93 95 -102 11 -3 67 -12 123 -19 106 -13
166 -11 140 5 -7 5 -21 6 -30 3 -15 -5 -18 1 -18 38 0 169 88 592 156 746 26
59 39 68 29 20 -4 -22 -3 -28 3 -19 7 10 12 7 20 -15 9 -25 10 -19 7 33 l-4
62 65 51 c35 27 65 50 68 50 2 0 35 18 72 40 38 22 78 40 90 40 29 0 36 11 19
29 -22 24 -87 113 -83 115 23 14 253 91 273 91 6 0 15 4 21 7 6 4 42 17 80 29
70 21 88 28 134 47 41 17 48 14 77 -30z m735 -155 l-3 -101 -35 -24 c-18 -12
-34 -26 -34 -31 0 -10 76 39 110 72 32 30 190 143 190 136 0 -5 -148 -222
-177 -261 -4 -5 -14 -20 -21 -32 -18 -32 1 -27 20 6 24 38 262 292 274 292 9
0 2 -18 -14 -36 -30 -33 -54 -75 -47 -82 4 -4 15 4 24 17 18 27 111 125 111
117 0 -6 -128 -196 -146 -217 -8 -8 -14 -25 -14 -36 0 -19 -47 -110 -113 -215
l-29 -48 -75 0 c-94 0 -213 19 -220 36 -2 7 10 47 27 91 17 43 38 98 46 123 8
25 19 54 24 65 5 11 17 43 26 70 9 28 27 72 40 99 13 28 24 57 24 65 0 8 3 11
8 6 4 -6 6 -56 4 -112z m6769 91 c8 -8 23 -14 32 -14 8 0 31 -15 50 -33 19
-18 40 -31 47 -29 6 2 14 -5 17 -16 3 -11 10 -19 17 -16 22 8 83 -63 117 -136
67 -143 81 -184 94 -280 3 -25 8 -54 11 -65 5 -18 -3 -23 -69 -38 -40 -9 -94
-17 -120 -17 -44 0 -47 2 -49 28 0 15 -2 38 -4 52 -2 14 -7 67 -13 118 -5 51
-12 96 -15 99 -3 3 -32 0 -63 -7 -78 -16 -237 -38 -243 -33 -3 3 -7 70 -8 149
l-4 144 35 39 c20 22 41 49 47 61 10 19 17 20 58 14 26 -3 54 -13 63 -20z
m-8246 -184 c-29 -29 -41 -37 -48 -27 -6 8 -7 6 -3 -6 4 -12 -5 -29 -27 -51
-17 -19 -42 -47 -54 -63 -12 -16 -35 -43 -50 -59 -14 -16 -40 -54 -56 -84 -15
-30 -41 -71 -55 -90 -15 -19 -35 -51 -44 -70 -13 -27 -17 -30 -18 -15 -1 11
-6 2 -11 -20 -5 -21 -13 -42 -17 -45 -5 -3 -15 -23 -23 -45 -9 -22 -21 -39
-27 -37 -7 1 -12 -5 -12 -13 0 -9 -9 -15 -22 -16 -22 0 -22 -1 2 -11 15 -6 20
-12 13 -15 -15 -5 -17 -33 -3 -33 11 0 1 -32 -14 -42 -8 -6 -7 -11 3 -17 19
-12 6 -41 -19 -41 -11 0 -20 -4 -20 -10 0 -5 7 -10 15 -10 23 0 19 -56 -6 -81
-14 -14 -17 -24 -11 -32 12 -14 4 -64 -11 -74 -6 -4 -8 2 -5 15 4 13 2 19 -6
16 -11 -4 -46 60 -46 85 0 7 -7 19 -15 27 -8 9 -15 26 -15 40 0 13 -3 24 -7
24 -13 0 -65 99 -58 110 3 6 0 10 -8 10 -14 0 -55 77 -49 93 1 5 -2 6 -6 3
-12 -7 -37 22 -49 59 -13 40 1 120 32 186 14 30 24 44 21 31 l-4 -22 36 19
c85 44 250 121 260 121 6 0 13 -8 15 -17 4 -14 5 -13 6 4 1 18 17 31 74 59 39
20 84 45 99 56 16 11 32 17 36 14 8 -4 86 33 207 98 43 23 43 20 0 -24z m7201
3 c15 -21 36 -44 45 -51 21 -15 194 -213 200 -229 2 -6 34 -44 71 -84 36 -41
67 -77 68 -81 1 -3 35 -41 76 -84 41 -43 74 -83 74 -89 0 -14 -68 -34 -141
-42 -74 -7 -125 13 -188 74 -48 47 -69 52 -27 6 15 -15 34 -36 44 -47 9 -10
27 -22 40 -27 26 -10 30 -31 5 -28 -32 5 -324 -33 -403 -52 -37 -9 -95 -20
-120 -23 -44 -6 -136 -30 -145 -39 -7 -6 -1 -7 15 -3 14 4 46 9 71 12 l45 6
-4 -36 c-3 -28 -1 -36 12 -36 9 0 16 -4 16 -10 0 -5 -7 -10 -15 -10 -8 0 -15
-6 -15 -14 0 -19 20 -32 21 -14 0 11 2 11 6 0 3 -7 -2 -19 -11 -25 -11 -9 -13
-16 -6 -27 8 -12 12 -13 19 -2 11 18 21 -7 21 -50 0 -16 7 -36 15 -45 14 -13
15 -9 9 41 -5 42 -4 56 6 56 7 0 10 -6 7 -13 -3 -8 -1 -20 4 -28 7 -11 9 -9 9
9 0 23 14 30 25 12 3 -5 17 -10 31 -10 15 0 23 -4 19 -10 -4 -6 -11 -8 -16 -5
-5 3 -6 -1 -3 -9 3 -8 14 -18 25 -21 22 -7 23 -21 4 -55 -8 -14 -14 -33 -15
-44 0 -14 8 -9 30 19 25 31 30 34 30 17 0 -11 -6 -23 -12 -25 -9 -4 -10 -8 -2
-14 7 -5 13 -67 17 -155 5 -123 4 -147 -8 -152 -8 -3 -22 -3 -30 0 -8 4 -17
-1 -21 -10 -3 -9 -10 -13 -16 -10 -5 3 -9 0 -7 -7 3 -26 -1 -39 -12 -39 -6 0
-9 6 -6 14 4 10 0 12 -14 9 -10 -3 -19 -10 -19 -16 0 -6 -3 -7 -7 -3 -4 4 -6
26 -5 49 2 31 10 48 30 64 19 16 22 23 11 23 -27 0 -51 -37 -58 -92 -7 -49 -8
-51 -15 -23 -4 17 -12 39 -16 50 -5 11 -11 49 -13 85 -4 68 -30 171 -51 205
-7 11 -20 39 -29 62 -9 23 -26 64 -37 90 -26 58 -43 98 -60 138 -17 42 -23 52
-59 118 -17 31 -28 57 -24 57 4 0 -3 10 -17 23 -25 21 -80 118 -80 139 0 13
89 1 107 -14 7 -5 28 -10 48 -11 19 -1 35 -5 35 -9 0 -5 11 -13 25 -18 16 -6
23 -14 19 -25 -3 -8 -1 -15 6 -15 6 0 8 5 5 10 -3 6 1 10 10 10 10 0 15 -7 13
-17 -2 -14 3 -17 25 -15 15 1 27 -1 27 -7 0 -5 9 -7 20 -4 14 4 20 0 20 -11 0
-11 10 -16 30 -17 17 -1 35 -2 40 -3 6 -1 10 4 10 9 0 6 -7 10 -14 10 -8 0
-18 4 -23 9 -4 5 10 6 34 3 33 -4 45 -1 60 15 13 14 26 18 48 15 18 -3 39 1
50 9 10 8 31 14 47 14 15 0 28 4 28 9 0 6 -15 9 -32 8 -26 -2 -32 2 -30 16 2
9 -3 17 -9 17 -7 0 -10 3 -6 6 3 3 16 -1 28 -9 21 -15 49 -13 49 4 0 5 -7 9
-15 9 -8 0 -15 5 -15 11 0 8 14 10 40 6 47 -6 54 9 11 24 -43 15 -48 39 -8 40
30 1 29 2 -13 13 -25 7 -43 16 -40 21 3 6 -8 16 -23 23 -47 23 -23 24 39 2 65
-22 78 -24 69 -11 -3 5 -19 13 -37 16 -17 4 -39 15 -48 24 -22 22 -55 144 -40
149 8 3 7 8 -1 18 -9 11 -9 21 -1 38 7 17 7 27 0 34 -6 6 -12 28 -12 49 -1 21
-6 50 -10 66 -12 39 6 34 40 -10z m-1121 -293 c22 -11 66 -27 98 -36 l57 -17
-7 -96 c-11 -138 -4 -298 17 -386 14 -58 13 -62 -20 -74 -29 -10 -30 -9 -30
20 0 19 5 29 15 29 8 0 15 5 15 10 0 11 -33 13 -70 3 l-25 -7 25 -6 c18 -4 25
-13 25 -30 0 -22 -5 -25 -43 -28 -37 -3 -42 -6 -37 -23 5 -16 1 -19 -29 -19
-20 0 -36 5 -36 10 0 6 11 10 25 10 14 0 25 5 25 11 0 7 -10 9 -25 5 -23 -6
-25 -3 -25 24 0 27 3 30 30 30 24 0 30 -4 30 -22 0 -23 1 -23 14 2 7 14 11 28
9 32 -2 4 -33 4 -68 1 -60 -5 -65 -4 -65 15 0 11 11 40 25 63 14 24 25 55 24
69 0 18 -5 12 -19 -25 -18 -47 -71 -105 -95 -105 -30 1 -35 16 -20 59 12 34
15 88 14 240 0 108 -4 221 -8 251 -5 30 -7 58 -5 62 4 6 73 -22 179 -72z
m-4130 -70 c27 -27 53 -50 58 -50 5 0 15 -7 24 -15 16 -17 8 -35 -30 -63 -43
-32 -72 -61 -66 -66 3 -3 19 7 36 22 16 15 46 42 66 60 21 18 37 38 37 44 0
13 80 91 87 85 2 -3 -2 -17 -9 -31 -8 -19 -9 -30 -1 -34 5 -4 13 -28 17 -53 5
-33 16 -54 37 -75 27 -26 37 -29 96 -29 l65 0 44 48 c51 56 58 50 14 -10 -42
-57 -100 -80 -155 -61 -57 18 -113 78 -121 128 -4 22 -11 40 -16 40 -16 0 -4
-84 15 -105 10 -10 15 -25 12 -33 -2 -7 0 -10 5 -7 5 3 29 -8 52 -24 59 -42
262 -194 293 -219 6 -5 43 -32 83 -61 51 -37 72 -59 72 -74 0 -18 2 -19 10 -7
9 13 12 13 24 -2 7 -10 17 -18 22 -18 5 0 23 -12 39 -27 16 -16 33 -27 38 -25
5 1 11 -7 14 -18 3 -11 9 -18 13 -15 12 7 79 -34 116 -70 17 -17 36 -29 42
-27 6 2 17 -6 24 -17 7 -12 20 -21 29 -21 9 0 19 -7 23 -15 6 -16 0 -88 -15
-170 -5 -27 -14 -88 -20 -135 -7 -47 -13 -87 -15 -89 -2 -2 -15 4 -28 13 -17
11 -23 22 -20 34 5 13 4 14 -4 3 -8 -11 -21 -5 -68 30 -33 24 -63 50 -67 57
-5 7 -12 10 -18 7 -5 -4 -24 5 -41 18 -41 30 -199 107 -221 107 -9 0 -19 5
-22 10 -3 6 -13 10 -22 10 -22 0 -157 66 -233 115 -72 46 -140 106 -140 124 0
6 -4 11 -9 11 -15 0 -34 62 -31 104 1 23 -2 36 -8 32 -6 -3 -13 11 -17 34 -4
22 -10 40 -13 40 -4 0 -23 -16 -42 -35 -64 -65 -102 -43 -136 80 l-13 50 3
-45 c2 -25 13 -65 24 -89 12 -25 19 -47 16 -50 -9 -9 -94 -3 -146 10 -69 18
-112 64 -127 136 -15 78 -14 220 3 277 28 93 113 183 185 197 75 14 85 11 136
-41z m-5400 3 c-12 -64 -24 -214 -25 -295 0 -81 -19 -112 -21 -35 l-2 42 -6
-38 c-3 -21 -9 -38 -13 -37 -5 0 -21 0 -38 0 -19 0 -30 5 -30 14 0 26 60 203
76 222 14 18 14 16 9 -21 -3 -22 -1 -46 4 -53 5 -9 11 21 15 80 9 119 16 158
28 158 6 0 7 -14 3 -37z m2320 -40 c-8 -69 -29 -123 -47 -123 -7 0 -43 -5 -80
-10 -56 -8 -75 -7 -108 6 -23 9 -40 20 -38 25 2 4 41 42 87 83 82 75 84 76
138 76 l55 0 -7 -57z m2130 -13 c1 -14 7 -70 14 -125 6 -55 18 -156 27 -225 8
-69 19 -145 25 -170 5 -25 11 -75 12 -112 2 -37 6 -70 9 -73 4 -4 4 -23 1 -43
-5 -30 -4 -34 10 -29 11 4 23 -5 38 -31 29 -47 135 -175 187 -225 22 -22 39
-46 37 -55 -1 -10 0 -11 2 -4 6 17 16 15 40 -7 11 -10 34 -26 52 -35 17 -9 29
-21 25 -27 -4 -6 -11 -5 -22 3 -13 11 -15 9 -10 -17 4 -17 -1 -51 -12 -80 -10
-27 -23 -77 -30 -110 -7 -33 -17 -75 -22 -94 -6 -18 -11 -91 -12 -162 0 -71
-2 -129 -3 -129 -9 0 -134 58 -155 72 -14 10 -29 18 -32 18 -27 0 -306 248
-306 272 0 3 6 13 13 20 7 7 26 31 42 53 17 22 32 42 35 45 3 3 27 38 54 77
l48 73 29 -20 c18 -14 26 -27 23 -38 -5 -14 -4 -15 5 -2 8 12 13 12 23 2 9 -9
9 -12 -1 -12 -11 0 -11 -3 -1 -15 7 -8 18 -15 26 -15 7 0 34 -12 60 -26 38
-21 54 -25 87 -20 52 9 104 33 111 53 10 24 -1 27 -28 9 -34 -22 -158 -23
-176 -1 -7 8 -16 15 -21 15 -12 0 -93 52 -97 63 -2 4 -9 7 -16 7 -6 0 -18 9
-26 20 -8 11 -20 20 -26 20 -6 0 -17 7 -24 15 -7 9 -19 14 -27 11 -7 -3 -13
-1 -13 5 0 11 -25 39 -35 39 -4 0 -30 16 -59 35 -28 18 -60 38 -71 42 -63 27
-113 73 -65 60 15 -4 20 0 20 15 0 11 6 25 13 33 12 11 14 7 15 -22 2 -42 12
-59 12 -20 0 38 18 34 23 -5 l4 -33 1 37 c2 27 7 38 22 43 14 4 20 15 20 36 0
16 -4 29 -10 29 -5 0 -10 -13 -10 -29 0 -20 -6 -30 -20 -34 -17 -4 -20 0 -20
29 0 19 -4 34 -10 34 -5 0 -10 -9 -10 -20 0 -34 -19 -22 -26 17 -5 25 -3 38 5
41 16 5 14 42 -2 42 -16 0 -40 92 -35 134 3 32 28 49 28 20 0 -12 3 -15 10 -8
15 15 3 41 -21 47 -13 4 -19 0 -19 -11 -1 -38 -18 16 -35 112 -14 75 -16 102
-7 116 8 14 8 20 0 22 -6 2 0 22 17 48 29 47 44 62 56 54 4 -2 9 3 12 10 3 8
1 16 -5 18 -12 4 31 78 46 78 5 0 3 -7 -4 -15 -9 -11 -9 -15 -1 -15 6 0 16 12
21 26 6 14 15 22 21 19 6 -4 8 -13 5 -21 -3 -8 0 -14 6 -14 6 0 8 11 5 28 -7
37 2 49 38 54 73 8 88 4 90 -22z m7895 -80 c-11 -7 -9 -11 14 -19 15 -6 32 -9
37 -6 5 3 17 1 28 -5 14 -7 22 -7 27 2 4 6 3 9 -2 6 -5 -3 -15 0 -22 8 -11 12
-9 14 8 14 11 0 21 -6 21 -12 3 -36 18 -68 30 -68 5 0 9 12 9 26 0 32 11 29
89 -27 97 -69 155 -104 201 -123 97 -39 107 -45 83 -45 -26 -1 -30 -16 -9 -37
19 -18 36 -18 36 1 0 8 5 15 10 15 14 0 13 -4 -15 -62 -14 -28 -25 -58 -25
-65 0 -25 15 -13 32 25 21 44 52 82 68 82 7 0 10 6 7 13 -4 10 3 12 25 9 19
-3 27 -9 24 -18 -3 -7 -1 -16 4 -19 6 -4 10 3 10 14 0 26 26 28 52 4 11 -10
18 -30 18 -54 0 -21 5 -41 10 -44 17 -10 11 -24 -9 -22 -12 1 -17 6 -13 17 3
8 2 12 -2 8 -4 -3 -21 -2 -37 2 -16 5 -29 5 -29 0 0 -14 -31 -41 -41 -35 -5 4
-9 18 -9 32 0 15 -3 23 -7 19 -4 -4 -6 -22 -5 -41 1 -18 -2 -36 -7 -40 -7 -4
-6 -14 1 -30 9 -19 7 -27 -7 -41 -16 -17 -18 -17 -30 -1 -18 25 -33 21 -37
-10 -2 -14 -9 -28 -16 -31 -11 -3 -13 10 -10 62 1 36 0 66 -4 66 -8 0 -68 -91
-90 -135 -17 -36 -41 -78 -48 -85 -13 -13 -158 -237 -163 -252 -4 -10 -11 -18
-17 -18 -5 0 -10 -7 -10 -16 0 -8 -25 -53 -56 -100 -31 -47 -63 -106 -73 -132
-22 -61 -85 -158 -79 -121 3 14 -2 31 -10 38 -12 12 -13 10 -7 -10 6 -20 5
-22 -6 -12 -17 17 -29 16 -29 -2 0 -23 -17 -18 -23 8 -3 12 -11 67 -17 122 -6
55 -16 117 -21 139 -6 21 -14 82 -19 135 -5 53 -15 141 -24 196 -23 161 -26
215 -10 215 46 0 44 126 -2 153 -24 14 -15 27 19 27 43 0 91 31 106 68 11 25
10 35 -3 58 -39 71 -43 73 -118 40 -35 -15 -38 -15 -38 0 0 9 14 21 30 27 17
6 30 14 30 18 0 16 43 54 63 55 12 1 29 4 37 7 13 5 46 12 75 15 6 1 3 -2 -5
-8z m-10401 -149 c12 -35 21 -70 21 -76 0 -17 -110 -39 -165 -33 -24 3 -56 13
-70 22 -21 14 -25 24 -25 69 l0 53 64 17 c35 9 78 17 95 17 16 0 33 5 37 11 9
15 16 1 43 -80z m-1159 26 c19 -9 53 -21 76 -26 l41 -11 2 -60 2 -60 -45 0
-46 0 -2 63 -2 62 -3 -62 -4 -61 -55 3 c-31 2 -58 6 -62 10 -3 3 -8 49 -10
101 l-4 96 38 -20 c22 -11 55 -26 74 -35z m845 8 c38 0 40 -1 37 -30 -2 -17
-12 -65 -24 -107 -29 -112 -109 -198 -184 -198 -37 0 -114 46 -114 69 0 10 21
42 48 72 26 30 75 89 110 132 40 48 68 75 75 70 7 -4 30 -7 52 -8z m10605 -10
c11 -13 8 -15 -21 -15 -26 0 -30 -3 -19 -10 8 -5 25 -10 37 -10 29 0 35 -12
22 -48 -13 -37 -43 -50 -137 -61 l-72 -7 -15 28 c-13 28 -13 30 18 49 18 11
42 22 54 25 12 3 24 12 27 20 3 8 15 14 26 14 11 0 20 4 20 9 0 8 14 15 41 20
4 0 12 -6 19 -14z m-1340 -159 c0 -69 3 -60 -118 -279 -39 -71 -74 -138 -78
-150 -4 -12 -15 -38 -25 -57 -11 -19 -19 -53 -20 -75 0 -34 -15 -91 -19 -75
-7 28 -11 222 -5 295 l7 93 74 7 c41 4 74 10 74 15 0 5 3 17 6 27 6 16 5 17
-7 2 -9 -11 -38 -19 -77 -23 l-63 -7 7 28 c4 15 11 30 16 31 13 6 9 24 -9 45
-18 19 -17 20 6 7 21 -11 23 -10 17 5 -4 11 0 23 11 31 14 11 15 15 5 22 -9 6
-10 15 -3 33 l10 24 0 -23 c1 -25 28 -59 39 -48 3 4 1 16 -6 27 -11 17 -8 24
22 54 37 36 63 44 84 23 9 -9 12 -9 12 3 0 19 20 40 32 33 4 -3 8 -33 8 -68z
m3793 50 c27 -16 57 -80 57 -121 0 -22 -13 -59 -31 -93 -87 -158 -83 -152
-112 -152 -15 0 -57 6 -93 12 l-66 13 6 45 6 45 -20 -25 c-11 -14 -32 -45 -46
-70 -22 -39 -23 -46 -10 -56 18 -12 21 -40 7 -48 -5 -4 -11 0 -14 6 -3 10 -8
10 -16 2 -10 -9 -9 -14 1 -25 15 -16 22 -59 9 -59 -4 0 -16 9 -26 20 -10 11
-21 18 -23 15 -3 -3 8 -19 24 -36 19 -21 25 -33 17 -36 -10 -4 -10 -10 -2 -25
10 -19 9 -20 -16 -14 -20 5 -31 2 -41 -11 -18 -24 -17 -33 1 -33 8 0 15 9 15
20 0 11 4 20 9 20 5 0 7 -9 4 -20 -4 -14 0 -20 11 -20 9 0 16 -8 16 -20 0 -11
5 -20 10 -20 14 0 12 37 -2 43 -9 3 -5 11 10 22 23 17 23 18 5 37 -14 16 -14
20 -3 16 8 -2 31 -26 52 -53 32 -42 35 -51 25 -74 -6 -14 -17 -31 -25 -38 -8
-6 -11 -17 -7 -23 10 -16 31 4 40 38 l7 27 18 -23 c12 -14 21 -18 25 -12 4 6
0 19 -9 29 -9 10 -16 21 -16 25 0 15 54 116 62 116 14 0 9 -14 -17 -52 -14
-20 -25 -42 -25 -47 0 -16 38 -33 67 -29 20 2 27 9 29 31 1 16 8 35 14 42 9
10 7 18 -9 34 -12 12 -21 25 -21 31 0 5 -7 7 -15 4 -9 -4 -15 0 -15 10 0 9 8
16 20 16 14 0 20 7 20 23 0 26 32 62 44 50 4 -4 4 -1 1 8 -3 8 1 23 8 34 14
18 15 18 27 -5 7 -13 14 -53 17 -89 2 -36 8 -81 13 -98 6 -25 5 -33 -5 -33 -7
0 -12 7 -11 16 0 9 -5 19 -13 22 -11 4 -13 -3 -8 -33 6 -34 2 -41 -44 -91 -45
-47 -55 -52 -80 -47 -21 4 -29 2 -27 -7 2 -6 -9 -21 -23 -32 -22 -16 -44 -21
-118 -23 -50 -1 -91 2 -91 6 0 4 9 9 20 11 12 2 19 7 18 13 -2 5 -9 9 -15 7
-7 -2 -13 4 -13 13 0 27 -16 16 -25 -17 -9 -29 -14 -33 -45 -34 -44 -1 -70 22
-59 52 10 29 0 38 -17 16 -18 -23 -17 -59 0 -65 9 -4 14 -18 14 -36 -1 -36
-11 -39 -31 -11 -8 11 -17 17 -20 13 -4 -3 0 -15 10 -25 9 -10 11 -18 5 -18
-6 0 -14 5 -17 10 -3 6 -19 17 -34 25 l-28 14 5 -44 c5 -52 -1 -57 -23 -15
-18 35 -19 74 -2 88 12 10 18 12 37 12 6 0 10 12 10 28 0 31 43 126 53 116 3
-4 2 -15 -4 -26 -6 -11 -8 -22 -5 -25 3 -3 9 3 12 13 4 10 13 26 21 36 9 10
11 18 4 22 -6 4 -4 20 6 44 19 47 20 47 37 33 9 -8 16 -8 20 -2 4 5 -3 16 -15
25 -20 14 -22 23 -20 105 1 59 -2 91 -8 91 -7 0 -11 -29 -11 -76 l0 -75 -22
15 c-12 9 -31 16 -41 16 -10 0 -15 5 -12 10 4 6 11 8 16 5 5 -4 9 1 9 9 0 9
-4 16 -10 16 -5 0 -17 17 -25 37 -22 52 -61 100 -96 118 -16 9 -29 22 -29 31
0 11 -6 14 -22 8 l-23 -7 20 23 20 23 -37 -6 c-43 -7 -49 3 -15 26 22 16 22
16 -15 16 -20 1 -40 6 -43 11 -4 6 20 10 64 10 l71 0 0 -36 c0 -23 4 -33 11
-28 6 3 9 19 5 35 -5 28 -4 29 32 31 20 1 53 3 72 4 53 3 100 11 113 21 7 5
26 10 42 12 42 4 134 31 140 41 3 4 24 17 48 27 23 11 58 27 77 36 39 18 138
14 173 -7z m-1385 -45 c10 -1 10 -6 2 -22 -15 -26 -5 -37 19 -22 19 12 31 8
31 -10 0 -6 -3 -7 -7 -4 -7 7 -32 -22 -32 -38 0 -5 6 -2 13 8 16 21 40 14 54
-17 13 -30 8 -36 -63 -69 -33 -16 -68 -33 -77 -38 -37 -19 -45 -13 -48 44 -3
37 6 58 27 63 13 4 23 10 23 15 0 5 -11 7 -25 3 -22 -5 -25 -3 -25 21 0 20 4
26 14 22 12 -5 13 -1 7 16 -5 12 -13 22 -19 22 -6 0 -14 3 -18 8 -4 4 19 5 52
3 32 -2 65 -5 72 -5z m236 -73 c-3 -4 0 -8 5 -8 6 0 11 -7 11 -16 0 -10 6 -14
14 -11 8 3 17 3 20 0 9 -9 -27 -32 -51 -33 -12 0 -24 -4 -28 -9 -3 -5 -22 -8
-43 -6 -20 3 -29 2 -19 -1 29 -9 19 -26 -15 -24 -48 3 -50 2 -38 -19 7 -13 7
-22 0 -26 -5 -3 -10 0 -10 7 0 24 -20 -15 -20 -40 0 -31 -57 -56 -95 -42 -20
8 -27 6 -31 -5 -8 -21 -23 -9 -17 13 2 10 13 19 25 19 24 2 34 10 25 19 -4 4
-13 2 -20 -4 -10 -9 -18 -8 -33 2 -18 14 -18 15 9 25 74 28 133 56 148 68 8 7
21 13 29 13 9 0 11 13 8 50 -3 27 -1 53 4 58 10 10 129 -19 122 -30z m-13639
-92 c8 -17 24 -47 35 -66 11 -19 20 -43 20 -53 0 -10 4 -26 9 -36 8 -15 0 -21
-57 -46 -37 -16 -88 -46 -115 -68 -26 -21 -44 -32 -41 -23 3 9 1 16 -5 16 -15
0 -14 27 2 33 8 3 6 11 -9 28 -18 20 -23 42 -28 127 -7 97 -6 102 13 102 11 0
31 -4 46 -10 36 -14 65 6 65 44 l0 29 24 -22 c14 -13 32 -38 41 -55z m483
-128 c12 -40 25 -88 28 -107 7 -31 6 -33 -17 -27 l-24 7 24 -19 23 -19 -28
-21 c-16 -11 -26 -24 -22 -28 5 -4 16 0 26 9 10 10 21 17 25 17 10 0 -4 -72
-31 -157 -28 -89 -39 -101 -133 -148 -30 -15 -60 -30 -68 -34 -17 -9 -27 -31
-14 -31 5 0 44 20 87 45 44 25 81 45 82 45 4 0 -4 -30 -29 -105 l-24 -70 -63
-22 c-34 -12 -68 -27 -74 -31 -27 -21 -46 -22 -46 -2 0 13 5 18 16 13 11 -4
14 0 12 18 -1 13 1 49 6 79 7 51 14 60 75 120 66 64 141 158 154 193 12 31
-11 9 -52 -51 -33 -48 -153 -172 -167 -172 -3 0 -3 12 -1 28 3 15 10 26 16 24
15 -3 14 15 -1 21 -7 3 1 6 17 7 29 1 29 1 11 15 -11 8 -29 15 -41 15 -29 0
-36 9 -24 31 9 18 11 18 51 -2 27 -14 44 -17 51 -10 6 6 -3 15 -29 26 -35 15
-37 18 -19 25 11 5 14 9 6 9 -11 1 -10 5 4 21 10 11 22 17 26 14 5 -3 9 2 9
10 0 19 5 19 -74 1 -59 -14 -68 -14 -100 2 -20 9 -36 20 -36 24 0 4 23 24 50
44 44 32 62 55 44 55 -6 0 -57 -39 -85 -65 -19 -18 -31 -19 -27 -2 4 19 -11
67 -21 67 -6 0 -6 -13 0 -32 5 -18 9 -35 9 -37 0 -2 -11 4 -24 13 -15 10 -27
12 -31 6 -3 -6 -2 -10 3 -10 4 0 21 -12 38 -28 16 -15 41 -34 57 -41 27 -14
31 -31 10 -38 -6 -2 -13 5 -16 17 -3 11 -10 20 -15 20 -10 0 -2 -46 13 -70 3
-5 1 -10 -5 -10 -6 0 -13 7 -16 15 -7 16 -39 20 -48 6 -7 -10 -46 -3 -46 9 0
4 18 20 40 35 22 15 38 30 35 33 -2 3 -10 0 -17 -5 -29 -23 -149 -83 -157 -79
-4 3 -15 -4 -24 -15 -10 -11 -29 -19 -47 -19 -20 0 -30 -5 -30 -15 0 -18 14
-19 42 -4 18 10 24 8 39 -12 9 -13 20 -37 24 -54 l6 -30 20 25 c65 83 60 74
39 82 -11 4 -20 14 -20 22 0 11 9 13 38 9 20 -3 39 -8 41 -10 3 -2 -9 -18 -25
-36 -38 -40 -106 -133 -127 -172 -9 -16 -16 -24 -17 -16 0 8 -7 23 -17 33 -9
10 -11 18 -5 18 6 0 14 -5 17 -11 5 -7 14 -4 26 7 22 20 26 43 5 25 -13 -11
-34 -6 -106 29 -27 12 -80 142 -57 139 11 -2 38 7 92 30 11 5 34 14 50 21 17
8 39 12 50 11 16 -3 17 -1 6 13 -7 9 -19 16 -25 16 -6 0 -22 9 -35 19 l-23 18
43 41 c24 23 52 42 62 42 9 0 17 3 17 8 0 11 60 41 98 48 24 5 32 3 32 -8 0
-10 14 -18 43 -22 49 -8 116 -30 158 -51 16 -9 29 -12 29 -8 0 5 5 1 10 -7 5
-8 10 -51 10 -95 0 -44 5 -87 10 -95 12 -19 12 -27 10 167 l-1 152 40 42 c23
23 41 48 41 55 0 35 17 8 38 -58z m8669 42 c-4 -15 7 -75 34 -190 6 -25 13
-61 15 -80 10 -83 12 -97 27 -133 9 -20 14 -37 11 -37 -2 0 -7 0 -10 1 -3 0
-12 -8 -20 -18 -13 -17 -13 -17 -14 0 0 11 -5 17 -12 14 -7 -2 -12 -10 -10
-16 3 -17 -40 -10 -46 7 -2 7 2 10 12 6 22 -8 20 3 -5 34 -20 25 -21 25 -16 5
3 -13 -1 -27 -9 -34 -16 -13 -16 -14 -14 71 1 36 -3 76 -9 90 -7 19 -10 -7
-12 -105 -1 -71 -1 -139 0 -151 1 -20 -5 -21 -125 -27 -89 -5 -131 -3 -141 5
-26 21 8 132 64 210 44 61 71 124 75 177 3 42 2 43 -37 60 -46 18 -125 70
-125 81 0 4 21 10 48 13 26 3 76 11 112 17 119 21 168 21 173 2 4 -14 6 -13
12 5 8 26 29 20 22 -7z m-9692 -33 c64 -26 123 -67 128 -90 3 -9 2 -15 -3 -12
-4 3 -17 -13 -29 -35 -16 -30 -17 -40 -7 -40 7 0 16 15 20 33 5 23 9 28 15 18
7 -10 12 -8 26 10 l17 24 -7 -24 c-5 -16 -4 -21 4 -17 13 8 51 -10 51 -25 0
-6 -5 -7 -12 -3 -7 4 -8 3 -4 -4 4 -6 13 -9 21 -5 8 3 15 0 15 -6 0 -6 6 -11
13 -11 7 0 23 -10 37 -22 14 -13 34 -24 45 -25 11 -1 38 -10 60 -19 l40 -18
-40 -7 c-22 -4 -44 -4 -49 -1 -5 3 -6 0 -2 -6 10 -16 -41 -38 -93 -41 -25 -1
-48 -4 -52 -7 -18 -11 -17 16 2 40 12 15 19 29 16 32 -5 6 -23 -12 -50 -50
-13 -18 -16 -17 -68 17 -95 63 -103 71 -90 95 7 12 7 23 2 27 -5 3 -12 -4 -16
-15 -8 -25 -70 -28 -97 -3 -24 21 -23 32 2 26 26 -7 60 23 60 51 -1 27 -66
116 -85 116 -21 0 -19 18 3 23 25 7 70 -2 127 -26z m2105 -166 c0 -5 -15 -14
-32 -21 -18 -7 -27 -14 -21 -17 15 -5 4 -29 -36 -81 -30 -38 -112 -92 -141
-92 -26 0 -25 -6 4 -33 36 -34 82 -115 106 -187 12 -36 25 -74 30 -85 5 -11
10 -29 12 -39 2 -11 9 -21 17 -24 9 -3 11 1 7 16 -4 13 -1 22 9 26 15 5 17 -2
19 -63 1 -18 8 -26 29 -32 20 -5 27 -4 27 7 0 8 -6 11 -15 8 -19 -8 -22 3 -35
101 -6 44 -15 107 -19 140 l-8 60 -2 -50 c-2 -27 -3 -74 -3 -102 0 -29 -4 -55
-9 -59 -5 -3 -9 3 -9 13 0 11 -7 28 -15 39 -8 10 -15 26 -15 34 0 20 -80 180
-90 180 -4 0 -11 7 -14 15 -3 9 -1 15 7 14 26 -3 36 2 31 15 -3 7 7 21 23 31
15 10 43 34 61 54 l34 36 -6 -32 c-3 -18 -2 -33 3 -33 13 0 21 27 15 45 -4 11
-2 13 9 9 12 -4 15 -25 16 -100 0 -60 6 -106 15 -127 8 -17 17 -49 21 -70 7
-41 69 -168 128 -260 20 -31 37 -58 37 -60 0 -6 -96 -4 -204 5 -101 7 -214 27
-396 68 -19 4 -57 13 -85 18 -27 6 -84 19 -125 30 -41 11 -94 23 -117 27 -24
4 -45 11 -49 16 -3 5 -16 9 -30 9 -13 0 -32 4 -42 9 -9 5 -53 17 -97 26 -176
36 -174 36 -167 53 5 15 4 15 -11 3 -9 -7 -17 -10 -17 -7 0 13 31 110 41 128
5 10 9 25 9 33 0 8 5 15 10 15 6 0 10 -5 10 -11 0 -8 5 -8 15 1 12 10 15 10
15 -1 0 -12 31 -29 105 -58 5 -2 4 2 -2 11 -7 8 -31 21 -53 28 -22 7 -40 17
-40 22 0 11 17 10 25 -2 3 -5 16 -10 29 -10 12 0 51 -11 86 -25 36 -14 69 -23
75 -21 5 2 1 7 -10 10 -11 4 -33 14 -50 21 -16 8 -42 17 -57 21 -40 9 -34 21
15 33 36 9 31 10 -43 6 l-85 -4 55 14 c30 7 99 23 153 35 111 24 125 39 20 20
-63 -11 -106 -21 -207 -49 -22 -6 -42 -8 -44 -6 -3 3 2 24 11 47 l17 43 62 2
c117 5 277 26 428 58 36 8 97 19 135 25 79 13 277 56 345 76 54 15 80 17 80 5z
m6878 -30 c10 -6 8 -14 -9 -35 -12 -15 -18 -30 -14 -34 4 -4 50 -7 103 -7 l97
0 -64 -42 c-35 -24 -69 -43 -75 -44 -6 0 -28 -10 -48 -22 -33 -19 -257 -143
-386 -214 l-42 -23 -14 33 c-8 17 -25 60 -39 95 l-26 62 55 35 c30 19 59 35
66 35 6 0 27 10 46 23 20 12 93 52 162 88 123 66 146 72 188 50z m-883 -42
c44 -13 82 -26 85 -29 3 -4 13 -9 23 -13 17 -6 24 -27 9 -27 -5 0 -19 -10 -31
-21 -19 -18 -25 -19 -33 -8 -7 10 -7 7 -3 -9 8 -29 -19 -62 -49 -62 -46 0 -87
56 -56 75 15 9 12 25 -4 19 -23 -9 -31 18 -11 33 16 11 16 13 3 13 -18 0 -30
-24 -22 -45 6 -15 -7 -34 -65 -101 -36 -41 -47 -41 -26 -1 7 15 17 48 21 74 4
26 13 53 20 61 8 7 14 27 14 44 0 34 -11 35 125 -3z m-3175 -78 c0 -4 27 -23
60 -42 38 -21 58 -39 55 -47 -3 -8 -5 -19 -5 -25 0 -8 -3 -7 -9 2 -7 10 -13
11 -30 2 -16 -9 -21 -9 -21 1 0 6 -11 -3 -25 -22 -14 -19 -25 -32 -26 -29 -6
52 -6 79 1 79 4 0 6 9 3 20 -8 29 -20 24 -28 -10 -4 -17 -10 -28 -15 -25 -4 3
-10 -2 -14 -10 -3 -8 -1 -15 5 -15 6 0 8 -9 4 -21 -5 -15 -2 -22 14 -26 17 -4
20 -11 15 -27 -9 -29 -24 -44 -24 -23 0 17 -7 20 -50 18 -25 -1 -25 -1 -2 9
14 6 22 18 21 32 0 21 -1 21 -8 4 -7 -18 -8 -18 -14 -2 -4 10 -4 23 -1 28 4 6
7 18 8 27 2 23 27 94 38 107 9 12 48 7 48 -5z m3007 -10 c2 -20 -22 -35 -38
-25 -5 3 -8 1 -7 -4 2 -6 -12 -24 -31 -41 -36 -32 -75 -40 -85 -18 -5 10 -7
10 -12 0 -8 -18 -34 -16 -34 3 0 8 -4 13 -9 10 -5 -3 -7 -15 -4 -26 4 -15 0
-20 -16 -20 -14 0 -21 6 -21 20 0 12 -7 20 -16 20 -13 0 -14 -3 -4 -15 16 -19
4 -35 -26 -35 -17 0 -24 5 -24 20 0 11 -4 20 -10 20 -5 0 -10 -11 -10 -25 0
-26 -15 -34 -23 -12 -4 10 -7 10 -18 0 -7 -7 -17 -13 -21 -13 -5 0 -8 6 -7 13
3 27 -2 48 -11 42 -5 -3 -6 -13 -3 -22 5 -13 2 -15 -11 -10 -10 4 -21 7 -25 7
-5 0 -20 11 -34 24 -27 25 -27 25 -6 39 17 13 24 13 48 1 53 -26 117 -32 183
-17 34 8 70 19 80 24 14 7 20 6 24 -6 3 -8 10 -15 15 -15 4 0 6 7 3 15 -4 10
0 15 13 15 11 0 23 3 27 8 9 9 87 41 101 41 6 1 11 -8 12 -18z m487 -91 c56
-84 99 -177 93 -202 -3 -10 -2 -16 2 -13 10 6 51 -85 51 -113 0 -11 6 -25 13
-29 12 -8 22 -27 46 -86 10 -25 9 -28 -6 -25 -10 2 -18 12 -18 23 0 13 -7 19
-18 19 -9 -1 -17 4 -17 12 0 8 -5 14 -11 14 -5 0 -7 -5 -3 -12 4 -7 3 -8 -4
-4 -7 4 -12 14 -12 23 0 9 -3 13 -6 10 -4 -4 -19 2 -33 12 -25 18 -26 22 -22
97 6 130 5 137 -13 176 -15 31 -28 41 -67 55 -39 14 -49 22 -49 40 0 22 16 73
23 73 3 0 25 -31 51 -70z m-8234 54 c0 -17 -23 -44 -38 -44 -9 0 -26 -8 -37
-17 -19 -15 -19 -15 10 -8 48 11 50 11 48 -2 -2 -7 6 -13 17 -13 22 0 27 16 8
23 -10 3 -10 9 0 26 7 12 10 26 7 31 -4 6 2 10 13 10 13 0 23 -14 35 -53 9
-30 17 -59 17 -66 0 -13 -51 -12 -60 1 -7 10 -50 -2 -50 -13 0 -5 5 -9 10 -9
6 0 10 -8 10 -17 0 -15 -2 -16 -10 -3 -8 12 -10 11 -10 -7 0 -13 5 -23 11 -23
6 0 22 -9 36 -20 l26 -20 -23 0 c-26 0 -22 -10 6 -14 23 -3 31 -26 10 -26 -18
0 -20 -8 -6 -30 6 -9 5 -17 -3 -22 -6 -4 -8 -10 -4 -14 4 -4 15 0 25 9 15 16
15 19 2 27 -14 9 -7 14 13 11 5 -1 22 10 39 24 16 14 34 25 39 25 17 0 9 -18
-15 -34 -14 -8 -40 -31 -58 -50 -26 -27 -39 -33 -61 -29 -15 3 -27 11 -27 19
0 7 -7 17 -17 22 -14 8 -13 12 10 27 21 13 25 21 17 35 -5 9 -7 20 -4 23 4 3
-3 5 -14 4 -17 -1 -19 -5 -10 -20 7 -15 5 -24 -11 -41 -12 -12 -21 -28 -21
-34 0 -7 -4 -12 -10 -12 -15 0 -12 27 6 44 8 9 11 16 5 16 -6 0 -11 4 -11 10
0 5 7 7 16 3 12 -4 14 0 8 23 -10 41 -27 71 -31 57 -3 -7 1 -21 6 -32 6 -11 7
-22 2 -25 -5 -3 -12 5 -15 18 -6 25 -62 74 -139 122 -80 49 -52 71 108 84 50
4 98 7 108 8 9 1 17 -1 17 -4z m477 -17 c24 9 25 -26 3 -57 -26 -36 -17 -56
10 -22 10 12 21 22 24 22 3 0 6 -22 6 -50 0 -29 5 -50 11 -50 13 0 2 -39 -17
-58 -8 -7 -14 -30 -14 -50 -1 -20 -7 -50 -14 -67 -13 -29 -13 -27 -11 33 1 46
-1 62 -11 62 -10 0 -14 -13 -14 -42 0 -58 -11 -118 -21 -118 -4 0 -6 9 -4 21
3 17 2 19 -10 9 -8 -6 -23 -9 -35 -5 -11 4 -20 2 -20 -4 0 -6 -7 -11 -15 -11
-8 0 -15 5 -15 10 0 13 -37 13 -43 0 -3 -6 -4 -5 -3 2 4 21 -26 38 -47 27 -9
-6 -22 -7 -27 -4 -15 9 -23 -15 -22 -70 l0 -52 -59 -17 c-71 -20 -80 -20 -55
-1 11 8 16 15 10 15 -5 0 -8 34 -7 77 l2 78 53 47 c29 25 55 43 58 39 3 -5 16
-11 30 -14 14 -3 46 -13 71 -22 36 -13 46 -21 42 -35 -4 -14 3 -19 31 -24 36
-7 66 8 66 32 0 9 -44 24 -105 37 -29 7 -27 8 47 45 50 24 87 36 105 34 15 -2
23 -2 16 2 -7 3 -9 12 -6 21 7 19 -17 12 -97 -27 -81 -39 -90 -41 -84 -25 5
12 62 45 79 45 3 0 20 13 38 29 l31 30 -37 -9 c-43 -9 -97 -48 -129 -91 -21
-28 -38 -25 -38 6 0 6 4 5 8 -2 5 -8 25 7 60 48 70 81 66 100 -5 24 -42 -45
-49 -50 -27 -20 32 46 124 157 139 167 5 4 16 1 25 -6 8 -7 21 -11 27 -9z
m5266 -71 c73 -1 116 -5 114 -11 -2 -5 -12 -10 -23 -11 -21 0 -128 -64 -120
-71 2 -2 22 7 45 21 22 14 54 26 71 26 16 0 30 5 30 10 0 14 86 13 112 -1 15
-8 22 -8 28 1 9 14 13 13 185 -24 66 -15 142 -31 169 -36 55 -11 363 -40 441
-41 l50 -1 -30 -13 c-27 -12 -13 -13 122 -13 84 0 157 -3 162 -6 5 -4 95 -7
199 -7 153 -1 204 2 265 17 71 18 77 21 109 68 18 27 47 60 64 73 28 21 36 23
75 14 46 -10 89 -49 89 -79 4 -270 3 -298 -13 -329 -9 -18 -17 -40 -16 -50 0
-10 10 2 21 27 l21 45 8 -50 c6 -38 5 -53 -6 -64 -16 -17 -50 -7 -39 11 6 10
5 10 -8 0 -22 -18 -36 3 -58 90 -37 144 -96 145 -275 4 -103 -81 -138 -84
-321 -29 -28 8 -59 13 -70 11 -25 -5 114 -48 158 -48 18 0 40 -5 48 -10 10 -7
-17 -10 -85 -10 -55 0 -125 -5 -155 -10 -30 -5 -91 -16 -135 -25 -44 -8 -99
-15 -122 -15 -23 0 -77 -7 -120 -16 -218 -43 -315 -56 -427 -57 -114 -1 -155
7 -347 71 -121 40 -144 51 -200 98 -34 30 -72 68 -83 86 -11 18 -26 38 -32 45
-6 6 -26 49 -43 95 -33 83 -54 132 -85 197 -9 19 -16 35 -16 36 0 1 28 -3 63
-8 34 -6 115 -11 180 -11z m2454 -21 c18 -9 42 -29 53 -45 21 -29 28 -100 10
-100 -5 0 -10 4 -10 8 0 5 -23 32 -52 60 -55 55 -54 55 -143 30 -22 -7 -46
-16 -53 -21 -9 -7 -18 -5 -29 6 -14 14 -14 18 -2 33 34 41 72 55 134 50 33 -2
75 -12 92 -21z m-8424 -12 c46 -28 84 -68 93 -95 3 -10 10 -18 15 -18 15 0 10
-56 -6 -70 -18 -15 -98 -5 -113 13 -12 16 -46 197 -37 197 3 0 24 -12 48 -27z
m15387 -3 c22 -11 49 -20 61 -20 15 0 19 -4 15 -16 -3 -9 -6 -22 -6 -30 0 -8
-4 -14 -10 -14 -5 0 -10 9 -10 20 0 11 -2 20 -4 20 -2 0 -13 3 -23 6 -11 4
-14 3 -6 -3 12 -8 16 -26 14 -55 -1 -21 -28 -23 -50 -5 -9 8 -40 23 -68 35
-42 17 -53 18 -53 7 0 -8 17 -19 38 -25 40 -13 88 -47 79 -57 -4 -3 -12 -1
-19 5 -9 7 -17 6 -26 -4 -11 -12 -9 -14 12 -14 14 0 28 -5 32 -12 5 -7 3 -8
-6 -3 -10 6 -12 4 -7 -8 5 -13 1 -17 -16 -17 -27 0 -41 10 -50 33 -3 9 -14 17
-23 17 -13 0 -15 -7 -9 -42 8 -47 -9 -44 -19 2 -3 14 -12 47 -21 74 -19 62
-19 58 8 89 16 19 34 27 67 30 25 2 49 4 53 5 4 1 25 -7 47 -18z m-5556 -62
c4 -29 11 -98 15 -153 5 -55 14 -126 21 -159 7 -38 8 -62 2 -68 -24 -24 -109
-9 -212 37 -56 25 -107 44 -114 42 -6 -3 -2 -8 9 -12 11 -4 52 -23 91 -41 39
-19 78 -34 87 -34 9 0 19 -5 23 -11 5 -9 -1 -10 -22 -5 -29 8 -51 17 -159 67
-33 15 -95 44 -139 63 -65 30 -77 39 -71 53 4 10 16 41 25 69 10 28 26 66 35
84 9 17 14 38 11 46 -5 13 -1 15 72 30 15 3 22 0 22 -11 0 -10 9 -15 28 -14
l27 1 -25 8 c-22 7 -20 8 15 9 22 1 56 6 75 12 44 13 140 36 161 38 13 1 18
-12 23 -51z m5312 20 c22 -23 32 -214 14 -249 -27 -51 -65 -108 -74 -109 -5 0
-3 6 3 14 10 11 9 16 -5 24 -9 5 -18 20 -19 33 -1 13 -3 29 -4 34 0 6 -10 16
-21 22 -16 11 -18 10 -14 -2 4 -8 2 -15 -3 -15 -13 0 -31 34 -39 75 -4 26 -9
33 -15 23 -5 -7 -6 -22 -2 -33 5 -17 4 -18 -11 -6 -9 7 -16 17 -16 21 0 4 23
42 51 84 48 72 59 105 24 76 -12 -10 -15 -10 -15 2 0 24 9 27 72 25 41 -1 63
-6 74 -19z m-6734 -30 c75 -83 102 -175 64 -217 -23 -25 -36 -19 -36 18 0 15
-12 46 -27 68 -26 40 -36 48 -95 72 -24 9 -28 16 -28 51 l0 40 47 0 c40 0 50
-5 75 -32z m-60 -100 c20 -14 27 -25 23 -38 -4 -12 0 -20 13 -24 10 -4 24 -18
30 -32 18 -37 14 -44 -5 -9 -20 36 -29 18 -14 -27 24 -68 -1 -166 -53 -209
-27 -24 -35 -23 -69 5 -25 20 -27 26 -17 50 5 15 10 55 10 89 0 72 -24 121
-68 139 -22 9 -24 12 -9 15 10 3 32 20 50 39 36 38 58 39 109 2z m-347 -138
c26 -49 19 -75 -27 -112 -24 -18 -49 -38 -56 -45 -7 -7 -17 -13 -21 -13 -4 0
-16 -8 -27 -19 -35 -32 -104 -72 -114 -66 -6 4 -17 19 -25 36 -9 16 -21 29
-28 29 -15 0 -43 43 -31 47 18 6 65 40 145 106 74 59 88 67 126 67 37 0 44 -4
58 -30z m243 -56 c2 -68 -1 -88 -22 -134 -48 -104 -71 -116 -152 -80 -49 23
-124 85 -124 104 0 10 62 66 73 66 3 0 10 -13 16 -28 12 -29 57 -62 83 -62 8
0 23 9 33 20 15 16 17 31 12 82 -3 35 -9 74 -13 87 -6 20 -4 22 14 17 12 -4
30 -3 39 3 31 18 38 6 41 -75z m-568 -164 c28 -30 44 -96 33 -138 -10 -40 -66
-40 -110 1 -13 11 -23 16 -23 9 0 -20 52 -52 84 -52 55 0 70 19 64 81 -3 30
-9 63 -13 74 -6 18 -4 17 14 -3 47 -53 29 -160 -28 -164 -84 -6 -120 15 -152
90 -22 50 -24 66 -8 56 8 -5 10 1 5 19 -9 36 16 57 66 57 31 0 46 -6 68 -30z"/>
<path d="M2722 6203 c-23 -66 -30 -85 -57 -148 -14 -33 -35 -87 -59 -152 -8
-23 -12 -44 -8 -47 13 -8 164 -28 169 -22 3 3 -1 102 -8 221 l-14 216 -23 -68z"/>
<path d="M2051 5763 c-20 -4 -49 -18 -80 -39 -7 -6 25 -30 61 -47 47 -22 93
-21 147 3 43 20 43 21 26 40 -23 25 -25 25 -22 -2 1 -14 -4 -23 -14 -26 -9 -1
-16 3 -16 10 0 7 -4 22 -9 32 -6 16 -4 18 12 13 19 -7 19 -7 0 8 -19 15 -55
17 -105 8z"/>
<path d="M1866 5492 c-3 -6 -3 -17 0 -26 3 -9 2 -16 -3 -16 -18 0 -60 -95 -66
-146 -7 -66 -1 -89 29 -103 35 -16 58 -14 77 7 18 20 23 82 8 98 -5 5 -16 35
-25 66 -13 45 -14 62 -5 76 8 13 9 24 2 37 -6 10 -13 13 -17 7z"/>
<path d="M2090 5373 c-14 -10 -17 -21 -14 -46 3 -17 1 -59 -4 -92 -6 -33 -8
-62 -6 -64 6 -6 66 35 65 45 -1 5 3 9 9 9 31 0 66 97 49 138 -10 23 -17 27
-46 25 -19 -1 -43 -8 -53 -15z"/>
<path d="M6679 3076 c-7 -7 9 -57 30 -94 7 -13 10 -30 7 -38 -3 -8 1 -17 10
-21 14 -5 84 -134 84 -154 0 -5 -21 6 -46 24 -63 44 -62 43 -123 72 -30 14
-60 25 -67 25 -7 0 -15 12 -17 28 -4 25 -5 26 -12 5 -4 -13 -12 -20 -22 -16
-8 3 -12 12 -9 19 3 7 1 16 -5 19 -5 4 -12 -1 -16 -11 -6 -16 -7 -16 -19 0 -8
12 -14 14 -19 6 -5 -8 -10 -8 -20 0 -9 8 -15 8 -20 0 -3 -5 2 -13 12 -16 10
-3 31 -12 46 -20 16 -7 34 -14 39 -14 16 0 212 -96 272 -133 42 -26 46 -32 30
-38 -10 -4 -13 -8 -6 -8 17 -1 15 -31 -3 -31 -8 0 -15 -6 -15 -13 0 -7 -16
-29 -36 -48 -57 -54 -67 -81 -49 -125 8 -20 15 -45 15 -55 0 -11 4 -27 9 -37
5 -9 17 -43 27 -74 10 -32 21 -58 24 -58 3 0 32 41 65 90 33 50 61 86 63 80 2
-5 8 -10 14 -10 6 0 6 6 -2 15 -9 11 -9 19 4 36 13 19 13 26 1 57 -8 19 -15
44 -15 56 0 11 -7 30 -15 40 -19 25 -19 95 -1 122 13 18 12 20 -4 20 -12 0
-21 -10 -25 -31 l-7 -30 -20 45 c-12 25 -20 59 -20 75 1 25 0 27 -7 10 l-9
-20 -7 20 c-4 11 -15 38 -25 60 -10 22 -28 64 -40 93 -12 28 -26 52 -30 52 -5
0 -10 7 -12 16 -2 9 -6 13 -9 10z m162 -423 c1 -17 2 -17 6 0 2 9 8 17 12 17
9 0 51 -134 51 -163 -1 -23 -109 -189 -124 -191 -9 -1 -74 183 -75 212 -1 7
18 37 42 65 63 78 86 93 88 60z"/>
<path d="M5323 5809 c-36 -10 -73 -62 -73 -102 0 -14 10 -45 23 -70 24 -49 50
-53 41 -7 -5 25 -1 32 36 59 23 17 51 33 61 36 22 7 26 56 6 73 -20 17 -59 21
-94 11z"/>
<path d="M14670 5053 c-35 -24 -40 -33 -40 -81 0 -56 -30 -112 -59 -112 -6 0
-11 -4 -11 -10 0 -15 16 -12 88 16 77 30 118 65 127 105 8 35 -8 65 -45 84
-35 18 -30 18 -60 -2z"/>
<path d="M14330 4916 c0 -65 44 -149 92 -176 67 -37 130 -6 120 60 -7 47 -42
74 -114 85 -50 8 -65 14 -73 33 -13 29 -25 28 -25 -2z m114 -48 c56 -16 76
-35 76 -74 0 -23 -5 -34 -17 -37 -59 -16 -70 -16 -91 4 -23 20 -62 90 -62 109
0 13 43 13 94 -2z"/>
<path d="M13872 3881 c-26 -10 -41 -20 -38 -28 3 -7 -1 -13 -8 -13 -8 0 -16
-6 -19 -12 -2 -7 -7 -10 -11 -6 -4 3 -3 16 4 27 8 16 8 21 -2 21 -22 0 -34
-14 -35 -38 -1 -13 -10 -30 -19 -36 -24 -18 -8 -38 26 -34 15 1 36 -4 46 -12
16 -14 17 -13 11 3 -4 11 -2 17 8 17 8 0 21 10 30 23 l15 22 6 -22 c3 -11 15
-24 26 -26 11 -3 17 -3 14 0 -3 3 -1 14 4 23 7 13 6 20 -5 24 -20 7 -19 43 1
54 12 7 13 10 2 18 -9 7 -27 5 -56 -5z"/>
<path d="M970 3371 c0 -5 7 -14 15 -21 8 -7 15 -16 15 -20 0 -5 16 -37 36 -72
l36 -63 -6 -100 c-10 -181 -16 -259 -25 -318 l-8 -58 125 7 124 7 -56 -73
c-31 -39 -56 -79 -56 -87 0 -8 18 12 40 45 40 59 137 152 160 152 6 0 -4 -18
-24 -41 -19 -23 -42 -56 -50 -73 -15 -31 -37 -213 -35 -286 1 -52 27 92 28
157 1 70 20 136 48 170 l22 28 1 -33 c0 -20 4 -31 10 -27 6 4 8 21 5 38 -6 38
18 78 37 59 8 -8 6 -18 -7 -39 -15 -23 -15 -26 -2 -15 9 8 21 11 26 8 6 -4 8
4 5 19 -2 14 -3 25 -2 25 2 0 19 -4 37 -10 26 -7 32 -7 23 2 -8 8 -7 15 6 24
9 8 12 14 5 14 -6 0 -15 -4 -18 -10 -24 -38 -187 63 -204 127 -12 43 5 96 70
228 60 123 71 165 44 165 -24 0 -56 -58 -86 -157 -5 -18 -14 -35 -19 -38 -6
-4 -10 -14 -10 -23 0 -21 -43 -72 -61 -72 -10 0 -10 3 -1 12 7 7 12 16 12 22
0 6 -5 5 -12 -2 -18 -18 -31 -14 -25 8 5 21 -7 28 -18 9 -4 -5 1 -19 11 -30
14 -16 15 -19 2 -19 -21 0 -40 26 -72 100 -15 36 -46 101 -68 145 -23 44 -46
90 -52 102 -11 23 -26 31 -26 14z"/>
<path d="M1523 2733 c20 -5 22 -14 5 -31 -9 -9 -9 -12 -1 -12 7 0 15 5 18 10
8 12 16 12 35 0 12 -7 11 -13 -10 -34 -28 -30 -40 -33 -40 -8 0 14 -2 15 -10
2 -5 -8 -10 -23 -10 -32 0 -16 3 -16 35 2 42 24 42 20 6 -45 -24 -43 -35 -51
-70 -59 -22 -6 -41 -13 -41 -18 0 -12 37 -10 73 5 37 15 107 21 147 12 51 -11
46 -75 -6 -75 -29 0 -33 33 -6 50 15 10 15 10 -3 8 -24 -4 -33 -51 -15 -74 10
-11 8 -16 -11 -23 l-24 -10 27 0 c15 -1 31 6 36 15 7 12 11 13 17 4 5 -8 11
-5 19 11 15 31 34 35 39 7 2 -13 3 -5 0 17 -2 27 -12 47 -28 62 -14 12 -26 32
-26 45 -1 15 -3 17 -6 7 -4 -17 -50 -32 -66 -22 -14 8 -4 136 11 161 8 12 12
25 9 29 -4 3 -9 -1 -13 -10 -4 -12 -13 -15 -33 -11 -14 4 -30 11 -35 15 -6 5
-17 8 -25 8 -12 -1 -12 -2 2 -6z"/>
<path d="M1665 2715 c-3 -8 -7 -21 -9 -28 -2 -8 -1 -29 4 -48 5 -24 8 -27 9
-11 1 12 7 22 15 22 7 0 64 -26 127 -58 87 -44 115 -63 120 -82 5 -16 7 -19 8
-7 1 23 13 21 45 -8 15 -14 31 -25 37 -25 13 0 11 -8 -12 -49 l-21 -36 21 24
c12 13 23 22 25 20 4 -4 24 -139 33 -226 3 -24 1 -43 -4 -43 -10 0 -60 22 -95
41 -27 14 -43 12 -29 -5 6 -7 35 -21 65 -30 30 -10 61 -23 69 -29 36 -28 14
-110 -32 -123 l-26 -7 24 -6 c22 -6 22 -8 7 -20 -14 -12 -19 -11 -38 5 -21 19
-21 19 -15 0 5 -12 1 -23 -10 -33 -16 -12 -14 -13 17 -7 50 9 70 22 70 44 0
11 7 20 15 20 9 0 15 10 16 23 1 12 6 2 11 -23 5 -25 14 -49 19 -54 15 -16 10
46 -6 74 -8 14 -14 38 -15 53 0 16 -4 36 -9 45 -5 9 -11 47 -15 85 -3 37 -8
77 -10 90 -3 12 -7 48 -11 80 -5 53 -4 57 12 48 13 -7 17 -20 14 -50 -3 -43 8
-52 29 -26 11 14 14 13 25 -2 11 -15 15 -15 29 -4 18 15 22 41 6 41 -5 0 -10
5 -10 11 0 6 7 8 18 5 10 -4 7 3 -10 19 -36 34 -41 32 -24 -10 9 -21 11 -37 5
-40 -5 -4 -11 0 -13 7 -3 7 -6 20 -9 28 -3 10 -7 5 -12 -12 -11 -43 -24 -33
-18 15 7 51 3 45 37 51 30 5 66 -11 66 -31 0 -7 6 -13 13 -13 8 0 7 -3 -3 -10
-12 -7 -12 -12 -2 -22 9 -9 12 -9 12 1 0 9 4 8 15 -3 22 -22 19 -30 -22 -54
-47 -27 -101 -72 -88 -72 6 0 30 16 54 35 51 40 67 44 50 13 -10 -20 -8 -19
14 4 14 15 27 32 29 38 2 7 10 -4 18 -24 7 -20 17 -36 22 -36 11 0 10 18 -2
25 -14 9 -12 72 3 79 6 3 -1 5 -18 4 -23 -1 -41 9 -75 40 -25 23 -57 48 -73
55 -15 6 -25 18 -22 25 3 9 -3 10 -20 6 -19 -5 -27 0 -41 28 -15 30 -18 31
-24 13 -9 -25 4 -60 21 -59 8 1 15 -11 16 -28 1 -15 1 -28 -1 -28 -2 0 -33 20
-70 45 -37 24 -83 52 -104 62 -20 9 -39 20 -42 23 -13 15 -62 39 -128 65 -72
27 -74 28 -68 56 6 30 -1 40 -9 14z"/>
<path d="M15281 1395 c-30 -76 -34 -85 -37 -85 -12 0 -94 36 -116 52 -31 21
-37 16 -11 -10 20 -20 51 -37 86 -46 15 -3 27 -12 27 -20 0 -19 -11 -27 -24
-18 -6 5 -33 17 -61 27 -27 9 -65 31 -82 48 -44 41 -52 29 -10 -14 20 -20 56
-42 90 -53 31 -11 57 -23 57 -28 0 -13 -34 -2 -110 35 -36 18 -68 34 -72 35
-5 2 -8 0 -8 -6 0 -11 83 -57 140 -77 38 -13 45 -13 69 1 26 15 91 101 104
137 10 27 -11 20 -27 -10 -8 -16 -15 -24 -16 -20 0 5 5 17 11 28 5 11 8 28 6
37 -3 13 -7 9 -16 -13z"/>
<path d="M6560 725 c0 -3 43 -26 96 -52 54 -27 99 -55 101 -64 3 -9 19 -20 36
-23 17 -3 54 -17 83 -31 29 -14 57 -25 62 -25 5 0 15 -7 22 -15 7 -9 19 -14
27 -11 34 13 4 -25 -65 -84 -88 -74 -158 -148 -149 -156 3 -4 35 22 69 57 93
94 150 139 175 139 12 0 25 4 28 10 4 6 13 6 23 1 49 -25 327 -83 395 -83 22
1 49 -3 60 -7 28 -11 134 -25 127 -18 -6 7 -133 32 -205 42 -27 3 -66 10 -85
15 -19 5 -75 16 -125 25 -91 17 -175 42 -175 54 0 3 20 18 45 33 25 15 45 32
45 38 0 6 -18 -1 -41 -15 -22 -15 -48 -25 -57 -24 -9 1 -25 -1 -35 -6 -19 -8
-74 16 -299 131 -110 56 -158 77 -158 69z"/>
</g>
</svg>
